note_on channel=0 note=58 velocity=42 time=1538
note_off channel=0 note=58 velocity=0 time=167
note_on channel=0 note=58 velocity=43 time=190
note_off channel=0 note=58 velocity=0 time=146
note_on channel=0 note=58 velocity=40 time=412
note_off channel=0 note=58 velocity=0 time=245
note_on channel=0 note=58 velocity=53 time=3246
note_off channel=0 note=58 velocity=0 time=134
note_on channel=0 note=58 velocity=40 time=502
note_off channel=0 note=58 velocity=0 time=201
note_on channel=0 note=58 velocity=50 time=2163
note_on channel=0 note=58 velocity=43 time=200
note_off channel=0 note=58 velocity=0 time=1
note_off channel=0 note=58 velocity=0 time=144
note_on channel=0 note=44 velocity=82 time=1005
note_on channel=0 note=56 velocity=60 time=11
note_on channel=0 note=52 velocity=62 time=89
note_on channel=0 note=68 velocity=46 time=89
note_on channel=0 note=63 velocity=47 time=0
note_on channel=0 note=58 velocity=74 time=67
note_on channel=0 note=56 velocity=49 time=44
note_off channel=0 note=56 velocity=0 time=1
note_off channel=0 note=56 velocity=0 time=211
note_off channel=0 note=63 velocity=0 time=101
note_off channel=0 note=68 velocity=0 time=89
note_off channel=0 note=58 velocity=0 time=503
note_on channel=0 note=56 velocity=73 time=100
note_on channel=0 note=44 velocity=68 time=22
note_off channel=0 note=44 velocity=0 time=1
note_on channel=0 note=58 velocity=75 time=44
note_on channel=0 note=63 velocity=48 time=11
note_off channel=0 note=56 velocity=0 time=100
note_on channel=0 note=56 velocity=58 time=0
note_off channel=0 note=63 velocity=0 time=246
note_off channel=0 note=56 velocity=0 time=166
note_on channel=0 note=46 velocity=40 time=179
note_off channel=0 note=58 velocity=0 time=11
note_on channel=0 note=63 velocity=72 time=0
note_on channel=0 note=58 velocity=74 time=0
note_on channel=0 note=56 velocity=64 time=11
note_off channel=0 note=44 velocity=0 time=11
note_on channel=0 note=44 velocity=68 time=0
note_off channel=0 note=56 velocity=0 time=123
note_off channel=0 note=46 velocity=0 time=78
note_off channel=0 note=52 velocity=0 time=245
note_off channel=0 note=63 velocity=0 time=34
note_off channel=0 note=58 velocity=0 time=0
note_on channel=0 note=63 velocity=58 time=0
note_on channel=0 note=58 velocity=85 time=0
note_off channel=0 note=44 velocity=0 time=10
note_on channel=0 note=44 velocity=49 time=1
note_on channel=0 note=56 velocity=60 time=223
note_off channel=0 note=58 velocity=0 time=22
note_on channel=0 note=58 velocity=68 time=0
note_on channel=0 note=52 velocity=49 time=11
note_off channel=0 note=63 velocity=0 time=336
note_on channel=0 note=63 velocity=46 time=145
note_off channel=0 note=58 velocity=0 time=11
note_on channel=0 note=58 velocity=61 time=0
note_off channel=0 note=56 velocity=0 time=89
note_off channel=0 note=44 velocity=0 time=67
note_off channel=0 note=52 velocity=0 time=67
note_off channel=0 note=63 velocity=0 time=0
note_off channel=0 note=58 velocity=0 time=11
note_on channel=0 note=63 velocity=62 time=0
note_on channel=0 note=58 velocity=74 time=0
note_on channel=0 note=56 velocity=55 time=0
note_on channel=0 note=52 velocity=64 time=0
note_on channel=0 note=44 velocity=47 time=44
note_off channel=0 note=44 velocity=0 time=145
note_off channel=0 note=56 velocity=0 time=67
note_off channel=0 note=52 velocity=0 time=0
note_on channel=0 note=56 velocity=59 time=0
note_off channel=0 note=58 velocity=0 time=145
note_on channel=0 note=58 velocity=72 time=0
note_off channel=0 note=56 velocity=0 time=11
note_off channel=0 note=63 velocity=0 time=101
note_off channel=0 note=58 velocity=0 time=133
note_on channel=0 note=59 velocity=81 time=0
note_on channel=0 note=49 velocity=66 time=11
note_off channel=0 note=59 velocity=0 time=123
note_on channel=0 note=63 velocity=77 time=11
note_on channel=0 note=59 velocity=84 time=0
note_off channel=0 note=59 velocity=0 time=279
note_on channel=0 note=59 velocity=68 time=0
note_on channel=0 note=59 velocity=66 time=502
note_off channel=0 note=59 velocity=0 time=1
note_off channel=0 note=59 velocity=0 time=300
note_on channel=0 note=59 velocity=64 time=0
note_off channel=0 note=59 velocity=0 time=368
note_on channel=0 note=59 velocity=60 time=0
note_off channel=0 note=63 velocity=0 time=123
note_on channel=0 note=63 velocity=68 time=0
note_off channel=0 note=59 velocity=0 time=167
note_on channel=0 note=59 velocity=45 time=89
note_off channel=0 note=59 velocity=0 time=167
note_off channel=0 note=63 velocity=0 time=190
note_on channel=0 note=59 velocity=38 time=44
note_on channel=0 note=63 velocity=53 time=101
note_off channel=0 note=59 velocity=0 time=44
note_off channel=0 note=63 velocity=0 time=849
note_off channel=0 note=49 velocity=0 time=389
note_on channel=0 note=51 velocity=36 time=636
note_off channel=0 note=51 velocity=0 time=168
note_on channel=0 note=56 velocity=56 time=3089
note_on channel=0 note=44 velocity=67 time=11
note_on channel=0 note=51 velocity=63 time=78
note_off channel=0 note=56 velocity=0 time=112
note_on channel=0 note=54 velocity=59 time=11
note_off channel=0 note=51 velocity=0 time=11
note_off channel=0 note=44 velocity=0 time=44
note_on channel=0 note=59 velocity=74 time=45
note_on channel=0 note=51 velocity=54 time=134
note_on channel=0 note=63 velocity=80 time=11
note_on channel=0 note=44 velocity=71 time=11
note_off channel=0 note=51 velocity=0 time=269
note_off channel=0 note=59 velocity=0 time=44
note_on channel=0 note=59 velocity=62 time=0
note_off channel=0 note=54 velocity=0 time=90
note_off channel=0 note=63 velocity=0 time=78
note_on channel=0 note=63 velocity=86 time=0
note_off channel=0 note=59 velocity=0 time=21
note_on channel=0 note=59 velocity=51 time=1
note_on channel=0 note=63 velocity=73 time=111
note_off channel=0 note=63 velocity=0 time=1
note_off channel=0 note=63 velocity=0 time=188
note_on channel=0 note=63 velocity=63 time=1
note_on channel=0 note=51 velocity=58 time=178
note_off channel=0 note=59 velocity=0 time=11
note_off channel=0 note=63 velocity=0 time=0
note_on channel=0 note=63 velocity=71 time=0
note_off channel=0 note=63 velocity=0 time=234
note_on channel=0 note=63 velocity=77 time=0
note_off channel=0 note=63 velocity=0 time=323
note_on channel=0 note=63 velocity=86 time=1
note_off channel=0 note=51 velocity=0 time=55
note_off channel=0 note=63 velocity=0 time=112
note_on channel=0 note=63 velocity=93 time=0
note_on channel=0 note=51 velocity=56 time=33
note_off channel=0 note=63 velocity=0 time=123
note_on channel=0 note=63 velocity=73 time=0
note_off channel=0 note=51 velocity=0 time=245
note_off channel=0 note=63 velocity=0 time=157
note_on channel=0 note=63 velocity=65 time=0
note_off channel=0 note=44 velocity=0 time=223
note_off channel=0 note=63 velocity=0 time=67
note_on channel=0 note=63 velocity=77 time=0
note_off channel=0 note=63 velocity=0 time=156
note_on channel=0 note=63 velocity=88 time=0
note_off channel=0 note=63 velocity=0 time=134
note_on channel=0 note=63 velocity=91 time=0
note_off channel=0 note=63 velocity=0 time=267
note_on channel=0 note=63 velocity=88 time=0
note_on channel=0 note=54 velocity=57 time=368
note_off channel=0 note=63 velocity=0 time=11
note_on channel=0 note=63 velocity=90 time=0
note_off channel=0 note=63 velocity=0 time=156
note_on channel=0 note=63 velocity=96 time=0
note_on channel=0 note=58 velocity=74 time=0
note_off channel=0 note=63 velocity=0 time=357
note_on channel=0 note=63 velocity=100 time=0
note_off channel=0 note=58 velocity=0 time=11
note_on channel=0 note=58 velocity=58 time=146
note_off channel=0 note=63 velocity=0 time=513
note_on channel=0 note=63 velocity=102 time=0
note_off channel=0 note=54 velocity=0 time=67
note_off channel=0 note=63 velocity=0 time=67
note_on channel=0 note=63 velocity=96 time=0
note_off channel=0 note=63 velocity=0 time=334
note_on channel=0 note=63 velocity=96 time=0
note_off channel=0 note=63 velocity=0 time=167
note_on channel=0 note=63 velocity=95 time=0
note_off channel=0 note=63 velocity=0 time=245
note_on channel=0 note=63 velocity=97 time=0
note_off channel=0 note=63 velocity=0 time=323
note_on channel=0 note=63 velocity=92 time=1
note_off channel=0 note=63 velocity=0 time=447
note_on channel=0 note=63 velocity=93 time=0
note_off channel=0 note=63 velocity=0 time=178
note_on channel=0 note=63 velocity=95 time=0
note_off channel=0 note=58 velocity=0 time=256
note_off channel=0 note=63 velocity=0 time=11
note_on channel=0 note=63 velocity=96 time=1
note_on channel=0 note=58 velocity=65 time=0
note_off channel=0 note=63 velocity=0 time=189
note_on channel=0 note=63 velocity=86 time=0
note_off channel=0 note=63 velocity=0 time=145
note_on channel=0 note=63 velocity=84 time=0
note_off channel=0 note=63 velocity=0 time=167
note_on channel=0 note=63 velocity=85 time=0
note_off channel=0 note=58 velocity=0 time=134
note_off channel=0 note=63 velocity=0 time=22
note_on channel=0 note=63 velocity=72 time=0
note_on channel=0 note=49 velocity=86 time=11
note_off channel=0 note=49 velocity=0 time=234
note_on channel=0 note=49 velocity=67 time=0
note_off channel=0 note=63 velocity=0 time=11
note_on channel=0 note=63 velocity=68 time=0
note_on channel=0 note=68 velocity=40 time=0
note_off channel=0 note=63 velocity=0 time=180
note_on channel=0 note=66 velocity=66 time=0
note_on channel=0 note=63 velocity=55 time=0
note_off channel=0 note=68 velocity=0 time=100
note_off channel=0 note=66 velocity=0 time=89
note_on channel=0 note=71 velocity=84 time=79
note_off channel=0 note=49 velocity=0 time=10
note_on channel=0 note=49 velocity=75 time=1
note_off channel=0 note=63 velocity=0 time=301
note_off channel=0 note=71 velocity=0 time=178
note_on channel=0 note=71 velocity=67 time=0
note_on channel=0 note=68 velocity=41 time=33
note_off channel=0 note=71 velocity=0 time=803
note_off channel=0 note=68 velocity=0 time=536
note_off channel=0 note=49 velocity=0 time=881
note_on channel=0 note=49 velocity=87 time=356
note_on channel=0 note=61 velocity=48 time=56
note_off channel=0 note=49 velocity=0 time=78
note_on channel=0 note=49 velocity=75 time=11
note_off channel=0 note=61 velocity=0 time=100
note_on channel=0 note=64 velocity=54 time=0
note_on channel=0 note=61 velocity=61 time=0
note_on channel=0 note=70 velocity=78 time=56
note_off channel=0 note=61 velocity=0 time=89
note_on channel=0 note=61 velocity=58 time=0
note_off channel=0 note=61 velocity=0 time=213
note_off channel=0 note=70 velocity=0 time=335
note_on channel=0 note=70 velocity=58 time=0
note_off channel=0 note=64 velocity=0 time=501
note_off channel=0 note=70 velocity=0 time=179
note_off channel=0 note=49 velocity=0 time=646
note_on channel=0 note=44 velocity=59 time=1495
note_on channel=0 note=54 velocity=49 time=55
note_on channel=0 note=59 velocity=62 time=67
note_on channel=0 note=63 velocity=59 time=67
note_on channel=0 note=70 velocity=64 time=56
note_on channel=0 note=56 velocity=57 time=245
note_off channel=0 note=54 velocity=0 time=79
note_off channel=0 note=63 velocity=0 time=100
note_off channel=0 note=70 velocity=0 time=79
note_off channel=0 note=56 velocity=0 time=11
note_on channel=0 note=56 velocity=77 time=11
note_off channel=0 note=59 velocity=0 time=33
note_off channel=0 note=56 velocity=0 time=424
note_on channel=0 note=56 velocity=74 time=0
note_on channel=0 note=59 velocity=73 time=45
note_on channel=0 note=63 velocity=58 time=11
note_off channel=0 note=56 velocity=0 time=200
note_on channel=0 note=56 velocity=75 time=0
note_off channel=0 note=56 velocity=0 time=156
note_on channel=0 note=56 velocity=65 time=0
note_off channel=0 note=59 velocity=0 time=179
note_off channel=0 note=63 velocity=0 time=145
note_on channel=0 note=63 velocity=60 time=0
note_on channel=0 note=59 velocity=55 time=0
note_on channel=0 note=54 velocity=40 time=0
note_off channel=0 note=56 velocity=0 time=222
note_off channel=0 note=54 velocity=0 time=12
note_off channel=0 note=44 velocity=0 time=100
note_off channel=0 note=59 velocity=0 time=12
note_on channel=0 note=44 velocity=51 time=112
note_on channel=0 note=56 velocity=58 time=33
note_on channel=0 note=59 velocity=32 time=0
note_off channel=0 note=59 velocity=0 time=167
note_off channel=0 note=63 velocity=0 time=12
note_on channel=0 note=63 velocity=68 time=0
note_on channel=0 note=59 velocity=75 time=0
note_off channel=0 note=56 velocity=0 time=55
note_on channel=0 note=56 velocity=67 time=0
note_off channel=0 note=56 velocity=0 time=145
note_on channel=0 note=56 velocity=66 time=0
note_off channel=0 note=56 velocity=0 time=167
note_on channel=0 note=56 velocity=54 time=0
note_off channel=0 note=56 velocity=0 time=134
note_off channel=0 note=44 velocity=0 time=123
note_off channel=0 note=59 velocity=0 time=56
note_off channel=0 note=63 velocity=0 time=44
note_on channel=0 note=63 velocity=59 time=0
note_on channel=0 note=59 velocity=51 time=11
note_on channel=0 note=56 velocity=69 time=0
note_on channel=0 note=70 velocity=51 time=0
note_off channel=0 note=70 velocity=0 time=156
note_off channel=0 note=59 velocity=0 time=67
note_off channel=0 note=56 velocity=0 time=0
note_on channel=0 note=59 velocity=50 time=0
note_on channel=0 note=56 velocity=77 time=0
note_off channel=0 note=63 velocity=0 time=11
note_on channel=0 note=63 velocity=70 time=0
note_on channel=0 note=44 velocity=54 time=23
note_off channel=0 note=44 velocity=0 time=178
note_on channel=0 note=47 velocity=76 time=134
note_off channel=0 note=63 velocity=0 time=22
note_off channel=0 note=59 velocity=0 time=67
note_off channel=0 note=56 velocity=0 time=11
note_on channel=0 note=56 velocity=66 time=0
note_off channel=0 note=47 velocity=0 time=89
note_on channel=0 note=47 velocity=61 time=0
note_on channel=0 note=54 velocity=59 time=11
note_on channel=0 note=63 velocity=42 time=34
note_off channel=0 note=63 velocity=0 time=302
note_off channel=0 note=56 velocity=0 time=89
note_on channel=0 note=63 velocity=40 time=89
note_off channel=0 note=63 velocity=0 time=279
note_on channel=0 note=58 velocity=60 time=134
note_on channel=0 note=56 velocity=48 time=11
note_off channel=0 note=54 velocity=0 time=278
note_off channel=0 note=56 velocity=0 time=56
note_on channel=0 note=54 velocity=56 time=67
note_off channel=0 note=54 velocity=0 time=212
note_on channel=0 note=66 velocity=45 time=0
note_on channel=0 note=54 velocity=65 time=11
note_off channel=0 note=47 velocity=0 time=44
note_on channel=0 note=63 velocity=59 time=0
note_on channel=0 note=58 velocity=56 time=0
note_on channel=0 note=46 velocity=47 time=0
note_off channel=0 note=58 velocity=0 time=1
note_on channel=0 note=56 velocity=49 time=22
note_off channel=0 note=46 velocity=0 time=133
note_on channel=0 note=46 velocity=50 time=0
note_off channel=0 note=54 velocity=0 time=12
note_off channel=0 note=46 velocity=0 time=144
note_on channel=0 note=54 velocity=43 time=12
note_off channel=0 note=66 velocity=0 time=22
note_off channel=0 note=63 velocity=0 time=0
note_off channel=0 note=56 velocity=0 time=0
note_on channel=0 note=66 velocity=53 time=0
note_off channel=0 note=66 velocity=0 time=135
note_on channel=0 note=66 velocity=52 time=0
note_off channel=0 note=66 velocity=0 time=156
note_on channel=0 note=56 velocity=35 time=45
note_off channel=0 note=58 velocity=0 time=33
note_on channel=0 note=63 velocity=52 time=0
note_on channel=0 note=58 velocity=46 time=0
note_off channel=0 note=54 velocity=0 time=11
note_on channel=0 note=66 velocity=40 time=100
note_off channel=0 note=56 velocity=0 time=23
note_on channel=0 note=54 velocity=49 time=44
note_off channel=0 note=66 velocity=0 time=111
note_off channel=0 note=54 velocity=0 time=23
note_on channel=0 note=47 velocity=42 time=123
note_on channel=0 note=66 velocity=67 time=67
note_off channel=0 note=58 velocity=0 time=156
note_off channel=0 note=47 velocity=0 time=11
note_on channel=0 note=47 velocity=44 time=178
note_off channel=0 note=63 velocity=0 time=22
note_off channel=0 note=66 velocity=0 time=45
note_on channel=0 note=66 velocity=90 time=0
note_off channel=0 note=47 velocity=0 time=223
note_off channel=0 note=66 velocity=0 time=245
note_on channel=0 note=66 velocity=63 time=0
note_on channel=0 note=63 velocity=46 time=100
note_on channel=0 note=51 velocity=60 time=0
note_off channel=0 note=66 velocity=0 time=34
note_on channel=0 note=54 velocity=55 time=33
note_on channel=0 note=61 velocity=59 time=34
note_off channel=0 note=63 velocity=0 time=55
note_on channel=0 note=63 velocity=46 time=0
note_off channel=0 note=63 velocity=0 time=224
note_on channel=0 note=63 velocity=74 time=1
note_off channel=0 note=61 velocity=0 time=33
note_off channel=0 note=54 velocity=0 time=401
note_off channel=0 note=63 velocity=0 time=201
note_on channel=0 note=63 velocity=79 time=0
note_on channel=0 note=54 velocity=61 time=33
note_off channel=0 note=63 velocity=0 time=234
note_on channel=0 note=63 velocity=74 time=0
note_off channel=0 note=63 velocity=0 time=201
note_on channel=0 note=63 velocity=92 time=0
note_off channel=0 note=51 velocity=0 time=144
note_off channel=0 note=63 velocity=0 time=90
note_on channel=0 note=63 velocity=109 time=0
note_off channel=0 note=54 velocity=0 time=11
note_on channel=0 note=54 velocity=75 time=0
note_on channel=0 note=51 velocity=61 time=0
note_off channel=0 note=63 velocity=0 time=123
note_on channel=0 note=63 velocity=107 time=0
note_off channel=0 note=63 velocity=0 time=313
note_on channel=0 note=63 velocity=103 time=0
note_off channel=0 note=51 velocity=0 time=145
note_on channel=0 note=61 velocity=57 time=111
note_off channel=0 note=54 velocity=0 time=11
note_off channel=0 note=63 velocity=0 time=0
note_on channel=0 note=63 velocity=107 time=1
note_on channel=0 note=54 velocity=55 time=0
note_on channel=0 note=51 velocity=43 time=89
note_off channel=0 note=61 velocity=0 time=211
note_off channel=0 note=63 velocity=0 time=268
note_off channel=0 note=51 velocity=0 time=0
note_on channel=0 note=63 velocity=80 time=0
note_on channel=0 note=51 velocity=45 time=212
note_off channel=0 note=54 velocity=0 time=234
note_off channel=0 note=51 velocity=0 time=167
note_on channel=0 note=56 velocity=53 time=201
note_off channel=0 note=63 velocity=0 time=33
note_on channel=0 note=63 velocity=73 time=0
note_on channel=0 note=51 velocity=61 time=0
note_on channel=0 note=54 velocity=69 time=11
note_on channel=0 note=42 velocity=42 time=0
note_on channel=0 note=61 velocity=34 time=22
note_off channel=0 note=56 velocity=0 time=79
note_off channel=0 note=63 velocity=0 time=44
note_on channel=0 note=63 velocity=93 time=0
note_off channel=0 note=61 velocity=0 time=34
note_off channel=0 note=42 velocity=0 time=1
note_on channel=0 note=44 velocity=48 time=33
note_off channel=0 note=63 velocity=0 time=145
note_on channel=0 note=63 velocity=71 time=0
note_on channel=0 note=78 velocity=39 time=123
note_off channel=0 note=63 velocity=0 time=245
note_off channel=0 note=78 velocity=0 time=34
note_off channel=0 note=44 velocity=0 time=44
note_on channel=0 note=78 velocity=42 time=111
note_on channel=0 note=61 velocity=50 time=0
note_on channel=0 note=63 velocity=60 time=11
note_on channel=0 note=44 velocity=46 time=67
note_off channel=0 note=78 velocity=0 time=100
note_off channel=0 note=44 velocity=0 time=190
note_off channel=0 note=61 velocity=0 time=11
note_off channel=0 note=54 velocity=0 time=89
note_off channel=0 note=63 velocity=0 time=56
note_on channel=0 note=63 velocity=75 time=0
note_on channel=0 note=61 velocity=50 time=145
note_off channel=0 note=63 velocity=0 time=11
note_on channel=0 note=63 velocity=79 time=0
note_on channel=0 note=54 velocity=65 time=0
note_off channel=0 note=61 velocity=0 time=401
note_off channel=0 note=63 velocity=0 time=57
note_on channel=0 note=63 velocity=76 time=0
note_off channel=0 note=51 velocity=0 time=23
note_off channel=0 note=54 velocity=0 time=156
note_on channel=0 note=54 velocity=66 time=0
note_on channel=0 note=61 velocity=50 time=11
note_on channel=0 note=51 velocity=43 time=0
note_off channel=0 note=63 velocity=0 time=77
note_on channel=0 note=63 velocity=67 time=1
note_on channel=0 note=44 velocity=45 time=33
note_off channel=0 note=44 velocity=0 time=412
note_off channel=0 note=51 velocity=0 time=224
note_off channel=0 note=61 velocity=0 time=167
note_off channel=0 note=54 velocity=0 time=245
note_on channel=0 note=49 velocity=73 time=134
note_off channel=0 note=63 velocity=0 time=33
note_off channel=0 note=49 velocity=0 time=123
note_on channel=0 note=56 velocity=55 time=11
note_on channel=0 note=49 velocity=74 time=0
note_on channel=0 note=59 velocity=62 time=78
note_on channel=0 note=63 velocity=58 time=100
note_off channel=0 note=59 velocity=0 time=102
note_on channel=0 note=59 velocity=47 time=0
note_off channel=0 note=56 velocity=0 time=33
note_on channel=0 note=56 velocity=39 time=223
note_off channel=0 note=59 velocity=0 time=23
note_on channel=0 note=61 velocity=41 time=111
note_off channel=0 note=56 velocity=0 time=111
note_on channel=0 note=56 velocity=45 time=12
note_off channel=0 note=61 velocity=0 time=144
note_off channel=0 note=56 velocity=0 time=1
note_off channel=0 note=49 velocity=0 time=178
note_on channel=0 note=49 velocity=78 time=0
note_on channel=0 note=59 velocity=41 time=524
note_off channel=0 note=63 velocity=0 time=111
note_on channel=0 note=63 velocity=56 time=0
note_off channel=0 note=59 velocity=0 time=145
note_on channel=0 note=59 velocity=48 time=134
note_off channel=0 note=59 velocity=0 time=191
note_on channel=0 note=59 velocity=50 time=200
note_on channel=0 note=49 velocity=67 time=401
note_off channel=0 note=49 velocity=0 time=1
note_off channel=0 note=59 velocity=0 time=88
note_off channel=0 note=63 velocity=0 time=12
note_on channel=0 note=63 velocity=64 time=0
note_on channel=0 note=59 velocity=49 time=278
note_off channel=0 note=63 velocity=0 time=123
note_on channel=0 note=63 velocity=68 time=0
note_off channel=0 note=59 velocity=0 time=11
note_on channel=0 note=61 velocity=44 time=78
note_on channel=0 note=59 velocity=48 time=178
note_off channel=0 note=63 velocity=0 time=123
note_on channel=0 note=63 velocity=69 time=0
note_off channel=0 note=61 velocity=0 time=33
note_off channel=0 note=59 velocity=0 time=245
note_on channel=0 note=59 velocity=52 time=1
note_off channel=0 note=63 velocity=0 time=112
note_on channel=0 note=63 velocity=71 time=0
note_off channel=0 note=59 velocity=0 time=157
note_off channel=0 note=49 velocity=0 time=155
note_on channel=0 note=49 velocity=67 time=0
note_off channel=0 note=63 velocity=0 time=178
note_on channel=0 note=68 velocity=43 time=1
note_on channel=0 note=63 velocity=56 time=0
note_on channel=0 note=56 velocity=55 time=0
note_off channel=0 note=63 velocity=0 time=189
note_on channel=0 note=58 velocity=68 time=11
note_off channel=0 note=56 velocity=0 time=101
note_off channel=0 note=68 velocity=0 time=33
note_off channel=0 note=49 velocity=0 time=89
note_on channel=0 note=64 velocity=52 time=0
note_on channel=0 note=49 velocity=55 time=0
note_off channel=0 note=58 velocity=0 time=22
note_on channel=0 note=58 velocity=56 time=0
note_on channel=0 note=68 velocity=47 time=78
note_on channel=0 note=56 velocity=41 time=45
note_off channel=0 note=56 velocity=0 time=145
note_off channel=0 note=64 velocity=0 time=11
note_on channel=0 note=56 velocity=53 time=0
note_off channel=0 note=68 velocity=0 time=33
note_on channel=0 note=68 velocity=42 time=145
note_off channel=0 note=56 velocity=0 time=34
note_off channel=0 note=68 velocity=0 time=111
note_off channel=0 note=58 velocity=0 time=78
note_on channel=0 note=58 velocity=43 time=257
note_off channel=0 note=58 velocity=0 time=514
note_off channel=0 note=49 velocity=0 time=835
note_on channel=0 note=68 velocity=42 time=123
note_off channel=0 note=68 velocity=0 time=189
note_on channel=0 note=63 velocity=42 time=79
note_on channel=0 note=68 velocity=58 time=133
note_on channel=0 note=58 velocity=50 time=12
note_on channel=0 note=49 velocity=40 time=11
note_off channel=0 note=49 velocity=0 time=168
note_off channel=0 note=68 velocity=0 time=11
note_off channel=0 note=58 velocity=0 time=23
note_off channel=0 note=63 velocity=0 time=145
note_on channel=0 note=44 velocity=76 time=66
note_on channel=0 note=63 velocity=43 time=23
note_on channel=0 note=56 velocity=49 time=0
note_on channel=0 note=68 velocity=54 time=11
note_on channel=0 note=51 velocity=58 time=89
note_off channel=0 note=44 velocity=0 time=66
note_off channel=0 note=56 velocity=0 time=1
note_off channel=0 note=68 velocity=0 time=0
note_on channel=0 note=68 velocity=52 time=0
note_on channel=0 note=56 velocity=63 time=0
note_on channel=0 note=44 velocity=61 time=0
note_on channel=0 note=59 velocity=68 time=44
note_off channel=0 note=63 velocity=0 time=90
note_on channel=0 note=63 velocity=52 time=0
note_off channel=0 note=56 velocity=0 time=11
note_off channel=0 note=68 velocity=0 time=100
note_on channel=0 note=68 velocity=63 time=0
note_off channel=0 note=59 velocity=0 time=156
note_on channel=0 note=59 velocity=55 time=0
note_off channel=0 note=63 velocity=0 time=67
note_on channel=0 note=64 velocity=46 time=0
note_off channel=0 note=68 velocity=0 time=167
note_on channel=0 note=68 velocity=51 time=0
note_off channel=0 note=64 velocity=0 time=100
note_on channel=0 note=63 velocity=51 time=0
note_on channel=0 note=56 velocity=49 time=56
note_off channel=0 note=68 velocity=0 time=156
note_on channel=0 note=68 velocity=54 time=0
note_off channel=0 note=63 velocity=0 time=67
note_off channel=0 note=56 velocity=0 time=11
note_on channel=0 note=63 velocity=46 time=0
note_on channel=0 note=56 velocity=78 time=0
note_off channel=0 note=51 velocity=0 time=56
note_off channel=0 note=59 velocity=0 time=0
note_on channel=0 note=59 velocity=67 time=0
note_on channel=0 note=51 velocity=70 time=0
note_off channel=0 note=44 velocity=0 time=22
note_on channel=0 note=44 velocity=61 time=0
note_off channel=0 note=68 velocity=0 time=11
note_off channel=0 note=56 velocity=0 time=78
note_on channel=0 note=56 velocity=62 time=0
note_off channel=0 note=56 velocity=0 time=213
note_on channel=0 note=56 velocity=60 time=0
note_on channel=0 note=68 velocity=44 time=11
note_off channel=0 note=56 velocity=0 time=156
note_on channel=0 note=56 velocity=50 time=1
note_off channel=0 note=44 velocity=0 time=167
note_on channel=0 note=44 velocity=61 time=0
note_off channel=0 note=68 velocity=0 time=10
note_on channel=0 note=68 velocity=56 time=1
note_off channel=0 note=63 velocity=0 time=11
note_on channel=0 note=63 velocity=64 time=0
note_off channel=0 note=59 velocity=0 time=11
note_on channel=0 note=59 velocity=54 time=0
note_off channel=0 note=56 velocity=0 time=67
note_on channel=0 note=56 velocity=47 time=0
note_off channel=0 note=68 velocity=0 time=45
note_off channel=0 note=56 velocity=0 time=100
note_on channel=0 note=68 velocity=61 time=156
note_off channel=0 note=59 velocity=0 time=44
note_on channel=0 note=59 velocity=47 time=1
note_off channel=0 note=68 velocity=0 time=111
note_on channel=0 note=56 velocity=55 time=145
note_off channel=0 note=51 velocity=0 time=11
note_off channel=0 note=44 velocity=0 time=0
note_off channel=0 note=59 velocity=0 time=0
note_on channel=0 note=59 velocity=66 time=0
note_on channel=0 note=51 velocity=60 time=0
note_on channel=0 note=44 velocity=63 time=0
note_off channel=0 note=63 velocity=0 time=11
note_on channel=0 note=63 velocity=76 time=0
note_off channel=0 note=56 velocity=0 time=145
note_off channel=0 note=63 velocity=0 time=579
note_off channel=0 note=59 velocity=0 time=58
note_on channel=0 note=63 velocity=37 time=89
note_off channel=0 note=63 velocity=0 time=201
note_off channel=0 note=44 velocity=0 time=133
note_off channel=0 note=51 velocity=0 time=34
note_on channel=0 note=56 velocity=73 time=122
note_on channel=0 note=63 velocity=88 time=134
note_on channel=0 note=58 velocity=43 time=0
note_off channel=0 note=63 velocity=0 time=390
note_on channel=0 note=63 velocity=82 time=0
note_on channel=0 note=40 velocity=60 time=167
note_off channel=0 note=56 velocity=0 time=111
note_on channel=0 note=56 velocity=68 time=1
note_off channel=0 note=56 velocity=0 time=401
note_on channel=0 note=56 velocity=55 time=0
note_off channel=0 note=63 velocity=0 time=101
note_on channel=0 note=63 velocity=77 time=0
note_off channel=0 note=56 velocity=0 time=145
note_off channel=0 note=63 velocity=0 time=256
note_on channel=0 note=63 velocity=71 time=1
note_off channel=0 note=58 velocity=0 time=78
note_off channel=0 note=63 velocity=0 time=312
note_on channel=0 note=63 velocity=72 time=0
note_on channel=0 note=56 velocity=48 time=33
note_on channel=0 note=58 velocity=46 time=156
note_off channel=0 note=56 velocity=0 time=67
note_on channel=0 note=56 velocity=57 time=11
note_off channel=0 note=63 velocity=0 time=134
note_on channel=0 note=63 velocity=83 time=0
note_off channel=0 note=58 velocity=0 time=212
note_on channel=0 note=58 velocity=47 time=0
note_off channel=0 note=56 velocity=0 time=178
note_off channel=0 note=63 velocity=0 time=0
note_on channel=0 note=63 velocity=78 time=0
note_on channel=0 note=56 velocity=63 time=0
note_off channel=0 note=40 velocity=0 time=223
note_off channel=0 note=56 velocity=0 time=56
note_on channel=0 note=56 velocity=41 time=0
note_off channel=0 note=58 velocity=0 time=45
note_off channel=0 note=63 velocity=0 time=67
note_on channel=0 note=63 velocity=78 time=0
note_on channel=0 note=58 velocity=45 time=0
note_off channel=0 note=56 velocity=0 time=235
note_off channel=0 note=58 velocity=0 time=44
note_on channel=0 note=58 velocity=41 time=100
note_on channel=0 note=56 velocity=54 time=0
note_off channel=0 note=63 velocity=0 time=11
note_on channel=0 note=63 velocity=59 time=1
note_off channel=0 note=58 velocity=0 time=133
note_off channel=0 note=56 velocity=0 time=33
note_off channel=0 note=63 velocity=0 time=235
note_on channel=0 note=63 velocity=65 time=0
note_off channel=0 note=63 velocity=0 time=145
note_on channel=0 note=49 velocity=72 time=44
note_on channel=0 note=68 velocity=50 time=78
note_on channel=0 note=56 velocity=68 time=0
note_on channel=0 note=58 velocity=61 time=45
note_on channel=0 note=63 velocity=60 time=22
note_on channel=0 note=46 velocity=48 time=11
note_off channel=0 note=46 velocity=0 time=167
note_off channel=0 note=68 velocity=0 time=67
note_on channel=0 note=61 velocity=54 time=11
note_on channel=0 note=68 velocity=52 time=67
note_off channel=0 note=56 velocity=0 time=11
note_on channel=0 note=56 velocity=50 time=0
note_off channel=0 note=58 velocity=0 time=56
note_off channel=0 note=61 velocity=0 time=44
note_on channel=0 note=61 velocity=70 time=1
note_off channel=0 note=68 velocity=0 time=100
note_off channel=0 note=61 velocity=0 time=67
note_on channel=0 note=61 velocity=81 time=0
note_off channel=0 note=56 velocity=0 time=112
note_on channel=0 note=56 velocity=47 time=1
note_off channel=0 note=61 velocity=0 time=55
note_on channel=0 note=61 velocity=87 time=0
note_off channel=0 note=56 velocity=0 time=335
note_on channel=0 note=56 velocity=43 time=0
note_off channel=0 note=61 velocity=0 time=44
note_on channel=0 note=61 velocity=82 time=0
note_off channel=0 note=63 velocity=0 time=89
note_on channel=0 note=63 velocity=57 time=1
note_off channel=0 note=61 velocity=0 time=111
note_on channel=0 note=61 velocity=87 time=0
note_off channel=0 note=56 velocity=0 time=145
note_on channel=0 note=56 velocity=46 time=0
note_off channel=0 note=61 velocity=0 time=11
note_on channel=0 note=61 velocity=54 time=0
note_off channel=0 note=56 velocity=0 time=134
note_off channel=0 note=63 velocity=0 time=234
note_on channel=0 note=63 velocity=51 time=134
note_off channel=0 note=61 velocity=0 time=379
note_on channel=0 note=61 velocity=56 time=200
note_off channel=0 note=63 velocity=0 time=1
note_on channel=0 note=63 velocity=51 time=179
note_off channel=0 note=63 velocity=0 time=178
note_off channel=0 note=61 velocity=0 time=11
note_on channel=0 note=61 velocity=43 time=11
note_off channel=0 note=61 velocity=0 time=145
note_on channel=0 note=61 velocity=64 time=0
note_off channel=0 note=61 velocity=0 time=167
note_on channel=0 note=61 velocity=45 time=0
note_off channel=0 note=49 velocity=0 time=56
note_on channel=0 note=49 velocity=65 time=0
note_on channel=0 note=68 velocity=31 time=89
note_on channel=0 note=56 velocity=81 time=0
note_off channel=0 note=61 velocity=0 time=11
note_on channel=0 note=59 velocity=67 time=45
note_on channel=0 note=63 velocity=72 time=67
note_off channel=0 note=56 velocity=0 time=11
note_on channel=0 note=56 velocity=45 time=0
note_off channel=0 note=68 velocity=0 time=67
note_on channel=0 note=91 velocity=41 time=67
note_on channel=0 note=44 velocity=41 time=145
note_off channel=0 note=91 velocity=0 time=33
note_on channel=0 note=61 velocity=42 time=134
note_off channel=0 note=44 velocity=0 time=78
note_off channel=0 note=56 velocity=0 time=134
note_off channel=0 note=59 velocity=0 time=133
note_off channel=0 note=63 velocity=0 time=12
note_off channel=0 note=61 velocity=0 time=11
note_on channel=0 note=56 velocity=43 time=156
note_on channel=0 note=63 velocity=70 time=12
note_off channel=0 note=56 velocity=0 time=279
note_on channel=0 note=61 velocity=36 time=100
note_off channel=0 note=61 velocity=0 time=145
note_on channel=0 note=61 velocity=79 time=0
note_off channel=0 note=49 velocity=0 time=156
note_off channel=0 note=63 velocity=0 time=0
note_off channel=0 note=61 velocity=0 time=0
note_on channel=0 note=63 velocity=68 time=0
note_on channel=0 note=61 velocity=76 time=0
note_on channel=0 note=59 velocity=50 time=0
note_on channel=0 note=56 velocity=52 time=0
note_on channel=0 note=49 velocity=49 time=0
note_off channel=0 note=61 velocity=0 time=156
note_on channel=0 note=61 velocity=72 time=0
note_off channel=0 note=59 velocity=0 time=290
note_off channel=0 note=61 velocity=0 time=223
note_on channel=0 note=61 velocity=89 time=0
note_on channel=0 note=59 velocity=47 time=11
note_off channel=0 note=63 velocity=0 time=11
note_on channel=0 note=63 velocity=48 time=0
note_off channel=0 note=56 velocity=0 time=111
note_off channel=0 note=61 velocity=0 time=56
note_on channel=0 note=61 velocity=91 time=0
note_off channel=0 note=59 velocity=0 time=145
note_off channel=0 note=49 velocity=0 time=56
note_off channel=0 note=61 velocity=0 time=89
note_on channel=0 note=61 velocity=74 time=0
note_off channel=0 note=61 velocity=0 time=168
note_on channel=0 note=61 velocity=84 time=0
note_off channel=0 note=63 velocity=0 time=34
note_on channel=0 note=49 velocity=47 time=44
note_off channel=0 note=49 velocity=0 time=212
note_off channel=0 note=61 velocity=0 time=22
note_on channel=0 note=61 velocity=66 time=0
note_off channel=0 note=61 velocity=0 time=145
note_on channel=0 note=61 velocity=50 time=0
note_off channel=0 note=61 velocity=0 time=178
note_on channel=0 note=61 velocity=51 time=1
note_on channel=0 note=63 velocity=55 time=289
note_on channel=0 note=56 velocity=56 time=134
note_on channel=0 note=44 velocity=59 time=0
note_off channel=0 note=61 velocity=0 time=23
note_off channel=0 note=56 velocity=0 time=166
note_on channel=0 note=54 velocity=63 time=1
note_on channel=0 note=59 velocity=67 time=178
note_off channel=0 note=63 velocity=0 time=11
note_on channel=0 note=63 velocity=55 time=0
note_off channel=0 note=63 velocity=0 time=167
note_on channel=0 note=63 velocity=82 time=0
note_off channel=0 note=54 velocity=0 time=134
note_on channel=0 note=70 velocity=70 time=68
note_off channel=0 note=63 velocity=0 time=11
note_on channel=0 note=63 velocity=89 time=0
note_off channel=0 note=59 velocity=0 time=112
note_on channel=0 note=54 velocity=45 time=89
note_off channel=0 note=70 velocity=0 time=178
note_on channel=0 note=70 velocity=58 time=0
note_on channel=0 note=59 velocity=67 time=0
note_off channel=0 note=70 velocity=0 time=223
note_off channel=0 note=59 velocity=0 time=0
note_off channel=0 note=54 velocity=0 time=134
note_on channel=0 note=70 velocity=52 time=45
note_on channel=0 note=59 velocity=58 time=55
note_off channel=0 note=63 velocity=0 time=56
note_on channel=0 note=63 velocity=85 time=0
note_off channel=0 note=70 velocity=0 time=23
note_off channel=0 note=59 velocity=0 time=66
note_on channel=0 note=70 velocity=49 time=190
note_on channel=0 note=59 velocity=57 time=11
note_off channel=0 note=70 velocity=0 time=145
note_off channel=0 note=59 velocity=0 time=0
note_on channel=0 note=70 velocity=55 time=245
note_on channel=0 note=59 velocity=61 time=0
note_on channel=0 note=68 velocity=44 time=33
note_off channel=0 note=63 velocity=0 time=23
note_on channel=0 note=63 velocity=74 time=0
note_off channel=0 note=70 velocity=0 time=100
note_off channel=0 note=68 velocity=0 time=11
note_off channel=0 note=59 velocity=0 time=22
note_on channel=0 note=63 velocity=89 time=67
note_off channel=0 note=63 velocity=0 time=1
note_off channel=0 note=63 velocity=0 time=123
note_on channel=0 note=70 velocity=46 time=0
note_on channel=0 note=63 velocity=81 time=0
note_on channel=0 note=59 velocity=59 time=0
note_on channel=0 note=68 velocity=44 time=33
note_off channel=0 note=68 velocity=0 time=156
note_off channel=0 note=59 velocity=0 time=12
note_off channel=0 note=70 velocity=0 time=55
note_off channel=0 note=63 velocity=0 time=45
note_on channel=0 note=63 velocity=85 time=0
note_on channel=0 note=70 velocity=49 time=100
note_on channel=0 note=59 velocity=53 time=0
note_off channel=0 note=63 velocity=0 time=123
note_on channel=0 note=63 velocity=77 time=0
note_off channel=0 note=59 velocity=0 time=44
note_off channel=0 note=70 velocity=0 time=11
note_off channel=0 note=63 velocity=0 time=79
note_on channel=0 note=63 velocity=89 time=0
note_on channel=0 note=63 velocity=81 time=200
note_off channel=0 note=63 velocity=0 time=1
note_off channel=0 note=63 velocity=0 time=222
note_on channel=0 note=63 velocity=75 time=0
note_on channel=0 note=70 velocity=44 time=100
note_off channel=0 note=63 velocity=0 time=156
note_off channel=0 note=70 velocity=0 time=0
note_on channel=0 note=63 velocity=73 time=1
note_off channel=0 note=44 velocity=0 time=77
note_on channel=0 note=63 velocity=79 time=67
note_off channel=0 note=63 velocity=0 time=1
note_on channel=0 note=70 velocity=43 time=100
note_off channel=0 note=70 velocity=0 time=189
note_on channel=0 note=70 velocity=44 time=191
note_on channel=0 note=68 velocity=48 time=22
note_off channel=0 note=63 velocity=0 time=67
note_on channel=0 note=63 velocity=64 time=0
note_off channel=0 note=68 velocity=0 time=111
note_off channel=0 note=70 velocity=0 time=1
note_off channel=0 note=63 velocity=0 time=100
note_on channel=0 note=63 velocity=71 time=0
note_on channel=0 note=70 velocity=43 time=89
note_on channel=0 note=68 velocity=45 time=33
note_off channel=0 note=70 velocity=0 time=201
note_off channel=0 note=68 velocity=0 time=66
note_on channel=0 note=70 velocity=49 time=90
note_off channel=0 note=63 velocity=0 time=34
note_on channel=0 note=63 velocity=71 time=0
note_on channel=0 note=68 velocity=45 time=22
note_off channel=0 note=70 velocity=0 time=78
note_off channel=0 note=68 velocity=0 time=67
note_on channel=0 note=70 velocity=44 time=200
note_off channel=0 note=63 velocity=0 time=34
note_on channel=0 note=68 velocity=53 time=0
note_on channel=0 note=63 velocity=69 time=0
note_off channel=0 note=70 velocity=0 time=144
note_off channel=0 note=68 velocity=0 time=101
note_on channel=0 note=70 velocity=41 time=111
note_off channel=0 note=63 velocity=0 time=34
note_on channel=0 note=68 velocity=60 time=0
note_on channel=0 note=63 velocity=60 time=0
note_off channel=0 note=70 velocity=0 time=178
note_off channel=0 note=68 velocity=0 time=46
note_off channel=0 note=63 velocity=0 time=156
note_on channel=0 note=68 velocity=59 time=0
note_on channel=0 note=63 velocity=58 time=0
note_off channel=0 note=68 velocity=0 time=201
note_on channel=0 note=70 velocity=45 time=178
note_off channel=0 note=63 velocity=0 time=11
note_on channel=0 note=63 velocity=61 time=0
note_on channel=0 note=68 velocity=54 time=11
note_off channel=0 note=70 velocity=0 time=179
note_off channel=0 note=68 velocity=0 time=33
note_on channel=0 note=70 velocity=40 time=167
note_on channel=0 note=68 velocity=49 time=0
note_off channel=0 note=63 velocity=0 time=11
note_on channel=0 note=63 velocity=67 time=0
note_off channel=0 note=70 velocity=0 time=178
note_on channel=0 note=70 velocity=48 time=190
note_off channel=0 note=63 velocity=0 time=22
note_on channel=0 note=63 velocity=59 time=0
note_off channel=0 note=68 velocity=0 time=11
note_on channel=0 note=68 velocity=51 time=1
note_off channel=0 note=70 velocity=0 time=144
note_off channel=0 note=63 velocity=0 time=245
note_off channel=0 note=68 velocity=0 time=1
note_on channel=0 note=68 velocity=58 time=0
note_on channel=0 note=63 velocity=60 time=0
note_off channel=0 note=68 velocity=0 time=213
note_on channel=0 note=68 velocity=54 time=200
note_off channel=0 note=63 velocity=0 time=781
note_on channel=0 note=63 velocity=48 time=0
note_off channel=0 note=68 velocity=0 time=623
note_on channel=0 note=68 velocity=45 time=179
note_off channel=0 note=63 velocity=0 time=12
note_off channel=0 note=68 velocity=0 time=168
note_on channel=0 note=68 velocity=63 time=312
note_on channel=0 note=63 velocity=53 time=0
note_off channel=0 note=68 velocity=0 time=178
note_off channel=0 note=63 velocity=0 time=134
note_on channel=0 note=63 velocity=54 time=312
note_off channel=0 note=63 velocity=0 time=312
note_on channel=0 note=63 velocity=71 time=636
note_on channel=0 note=35 velocity=60 time=34
note_off channel=0 note=63 velocity=0 time=200
note_off channel=0 note=35 velocity=0 time=67
note_on channel=0 note=23 velocity=58 time=859
note_off channel=0 note=23 velocity=0 time=201
note_on channel=0 note=65 velocity=0 time=434
note_off channel=0 note=65 velocity=0 time=1