note_on channel=0 note=56 velocity=54 time=1616
note_on channel=0 note=59 velocity=66 time=78
note_off channel=0 note=56 velocity=0 time=123
note_on channel=0 note=56 velocity=48 time=0
note_on channel=0 note=80 velocity=51 time=11
note_on channel=0 note=68 velocity=62 time=0
note_on channel=0 note=63 velocity=85 time=11
note_off channel=0 note=59 velocity=0 time=124
note_off channel=0 note=63 velocity=0 time=0
note_on channel=0 note=63 velocity=87 time=0
note_on channel=0 note=59 velocity=49 time=0
note_off channel=0 note=68 velocity=0 time=33
note_on channel=0 note=68 velocity=64 time=0
note_off channel=0 note=80 velocity=0 time=56
note_on channel=0 note=80 velocity=46 time=0
note_off channel=0 note=56 velocity=0 time=167
note_off channel=0 note=63 velocity=0 time=0
note_on channel=0 note=63 velocity=67 time=0
note_off channel=0 note=59 velocity=0 time=45
note_off channel=0 note=80 velocity=0 time=0
note_off channel=0 note=68 velocity=0 time=89
note_off channel=0 note=63 velocity=0 time=0
note_on channel=0 note=68 velocity=51 time=0
note_on channel=0 note=63 velocity=71 time=0
note_off channel=0 note=63 velocity=0 time=156
note_on channel=0 note=63 velocity=84 time=0
note_off channel=0 note=68 velocity=0 time=100
note_on channel=0 note=68 velocity=51 time=0
note_on channel=0 note=59 velocity=36 time=67
note_off channel=0 note=63 velocity=0 time=34
note_on channel=0 note=63 velocity=82 time=0
note_off channel=0 note=63 velocity=0 time=145
note_on channel=0 note=63 velocity=86 time=0
note_off channel=0 note=59 velocity=0 time=22
note_off channel=0 note=68 velocity=0 time=44
note_on channel=0 note=68 velocity=49 time=0
note_off channel=0 note=68 velocity=0 time=156
note_on channel=0 note=68 velocity=52 time=0
note_off channel=0 note=63 velocity=0 time=34
note_on channel=0 note=63 velocity=86 time=0
note_off channel=0 note=63 velocity=0 time=223
note_on channel=0 note=63 velocity=87 time=0
note_on channel=0 note=75 velocity=46 time=134
note_off channel=0 note=63 velocity=0 time=22
note_on channel=0 note=63 velocity=78 time=0
note_off channel=0 note=68 velocity=0 time=89
note_off channel=0 note=75 velocity=0 time=34
note_on channel=0 note=68 velocity=41 time=11
note_off channel=0 note=63 velocity=0 time=11
note_on channel=0 note=63 velocity=82 time=0
note_off channel=0 note=68 velocity=0 time=145
note_off channel=0 note=63 velocity=0 time=33
note_on channel=0 note=63 velocity=76 time=0
note_on channel=0 note=68 velocity=42 time=113
note_off channel=0 note=63 velocity=0 time=200
note_on channel=0 note=63 velocity=63 time=0
note_off channel=0 note=68 velocity=0 time=79
note_off channel=0 note=63 velocity=0 time=110
note_on channel=0 note=63 velocity=49 time=1
note_off channel=0 note=63 velocity=0 time=145
note_on channel=0 note=63 velocity=73 time=0
note_off channel=0 note=63 velocity=0 time=167
note_on channel=0 note=63 velocity=76 time=0
note_on channel=0 note=49 velocity=58 time=122
note_off channel=0 note=63 velocity=0 time=112
note_on channel=0 note=63 velocity=76 time=0
note_on channel=0 note=75 velocity=40 time=67
note_off channel=0 note=75 velocity=0 time=245
note_off channel=0 note=63 velocity=0 time=45
note_on channel=0 note=63 velocity=62 time=0
note_off channel=0 note=49 velocity=0 time=580
note_on channel=0 note=49 velocity=49 time=145
note_off channel=0 note=63 velocity=0 time=45
note_off channel=0 note=49 velocity=0 time=234
note_on channel=0 note=54 velocity=66 time=535
note_on channel=0 note=59 velocity=65 time=45
note_on channel=0 note=63 velocity=87 time=78
note_off channel=0 note=59 velocity=0 time=56
note_on channel=0 note=59 velocity=62 time=10
note_off channel=0 note=54 velocity=0 time=67
note_off channel=0 note=63 velocity=0 time=34
note_on channel=0 note=63 velocity=87 time=0
note_on channel=0 note=75 velocity=36 time=67
note_on channel=0 note=56 velocity=40 time=22
note_off channel=0 note=63 velocity=0 time=89
note_on channel=0 note=63 velocity=81 time=0
note_off channel=0 note=59 velocity=0 time=145
note_off channel=0 note=63 velocity=0 time=0
note_on channel=0 note=63 velocity=88 time=0
note_on channel=0 note=59 velocity=47 time=0
note_off channel=0 note=75 velocity=0 time=11
note_off channel=0 note=56 velocity=0 time=11
note_off channel=0 note=63 velocity=0 time=134
note_on channel=0 note=63 velocity=70 time=0
note_off channel=0 note=63 velocity=0 time=146
note_on channel=0 note=63 velocity=81 time=0
note_off channel=0 note=63 velocity=0 time=223
note_on channel=0 note=63 velocity=75 time=0
note_off channel=0 note=59 velocity=0 time=67
note_on channel=0 note=59 velocity=40 time=256
note_off channel=0 note=63 velocity=0 time=179
note_on channel=0 note=63 velocity=55 time=0
note_off channel=0 note=59 velocity=0 time=44
note_off channel=0 note=63 velocity=0 time=235
note_on channel=0 note=63 velocity=49 time=244
note_off channel=0 note=63 velocity=0 time=156
note_on channel=0 note=63 velocity=50 time=324
note_off channel=0 note=63 velocity=0 time=191
note_on channel=0 note=63 velocity=50 time=256
note_off channel=0 note=63 velocity=0 time=368
note_on channel=0 note=56 velocity=55 time=78
note_on channel=0 note=44 velocity=64 time=0
note_on channel=0 note=66 velocity=53 time=55
note_on channel=0 note=59 velocity=55 time=45
note_on channel=0 note=52 velocity=49 time=0
note_off channel=0 note=56 velocity=0 time=56
note_off channel=0 note=44 velocity=0 time=11
note_on channel=0 note=54 velocity=55 time=0
note_on channel=0 note=68 velocity=33 time=22
note_off channel=0 note=66 velocity=0 time=22
note_off channel=0 note=59 velocity=0 time=78
note_on channel=0 note=58 velocity=44 time=0
note_off channel=0 note=68 velocity=0 time=34
note_on channel=0 note=63 velocity=80 time=55
note_off channel=0 note=54 velocity=0 time=34
note_on channel=0 note=44 velocity=42 time=11
note_off channel=0 note=58 velocity=0 time=55
note_off channel=0 note=63 velocity=0 time=67
note_on channel=0 note=75 velocity=44 time=1
note_on channel=0 note=63 velocity=80 time=0
note_on channel=0 note=59 velocity=49 time=11
note_on channel=0 note=71 velocity=41 time=33
note_off channel=0 note=52 velocity=0 time=45
note_off channel=0 note=75 velocity=0 time=100
note_off channel=0 note=71 velocity=0 time=22
note_on channel=0 note=71 velocity=55 time=12
note_off channel=0 note=63 velocity=0 time=22
note_on channel=0 note=63 velocity=73 time=0
note_off channel=0 note=44 velocity=0 time=22
note_off channel=0 note=59 velocity=0 time=56
note_on channel=0 note=59 velocity=41 time=0
note_on channel=0 note=52 velocity=45 time=11
note_on channel=0 note=75 velocity=44 time=45
note_on channel=0 note=44 velocity=45 time=22
note_on channel=0 note=71 velocity=54 time=44
note_off channel=0 note=71 velocity=0 time=1
note_off channel=0 note=63 velocity=0 time=33
note_on channel=0 note=63 velocity=67 time=0
note_off channel=0 note=75 velocity=0 time=112
note_off channel=0 note=59 velocity=0 time=11
note_off channel=0 note=71 velocity=0 time=0
note_off channel=0 note=63 velocity=0 time=1
note_on channel=0 note=63 velocity=77 time=0
note_off channel=0 note=52 velocity=0 time=22
note_off channel=0 note=44 velocity=0 time=34
note_on channel=0 note=44 velocity=41 time=122
note_on channel=0 note=66 velocity=39 time=11
note_on channel=0 note=75 velocity=47 time=23
note_on channel=0 note=56 velocity=52 time=11
note_on channel=0 note=58 velocity=49 time=11
note_on channel=0 note=71 velocity=46 time=11
note_off channel=0 note=63 velocity=0 time=45
note_on channel=0 note=63 velocity=80 time=0
note_on channel=0 note=52 velocity=46 time=0
note_off channel=0 note=66 velocity=0 time=33
note_off channel=0 note=71 velocity=0 time=89
note_on channel=0 note=75 velocity=45 time=22
note_off channel=0 note=75 velocity=0 time=1
note_off channel=0 note=63 velocity=0 time=22
note_on channel=0 note=63 velocity=69 time=0
note_off channel=0 note=56 velocity=0 time=22
note_off channel=0 note=52 velocity=0 time=0
note_on channel=0 note=52 velocity=67 time=234
note_off channel=0 note=58 velocity=0 time=45
note_off channel=0 note=63 velocity=0 time=0
note_on channel=0 note=63 velocity=74 time=0
note_off channel=0 note=44 velocity=0 time=55
note_off channel=0 note=75 velocity=0 time=56
note_off channel=0 note=52 velocity=0 time=22
note_on channel=0 note=52 velocity=65 time=0
note_off channel=0 note=63 velocity=0 time=45
note_on channel=0 note=75 velocity=39 time=0
note_on channel=0 note=63 velocity=77 time=0
note_on channel=0 note=58 velocity=49 time=33
note_off channel=0 note=63 velocity=0 time=123
note_on channel=0 note=63 velocity=78 time=0
note_off channel=0 note=52 velocity=0 time=11
note_on channel=0 note=52 velocity=67 time=0
note_off channel=0 note=63 velocity=0 time=134
note_on channel=0 note=63 velocity=77 time=0
note_off channel=0 note=52 velocity=0 time=11
note_on channel=0 note=52 velocity=62 time=0
note_off channel=0 note=75 velocity=0 time=134
note_off channel=0 note=58 velocity=0 time=55
note_on channel=0 note=75 velocity=34 time=12
note_on channel=0 note=58 velocity=66 time=0
note_off channel=0 note=63 velocity=0 time=11
note_on channel=0 note=63 velocity=71 time=0
note_on channel=0 note=56 velocity=55 time=212
note_off channel=0 note=75 velocity=0 time=22
note_off channel=0 note=58 velocity=0 time=0
note_on channel=0 note=58 velocity=55 time=0
note_off channel=0 note=52 velocity=0 time=280
note_on channel=0 note=52 velocity=60 time=0
note_off channel=0 note=63 velocity=0 time=67
note_on channel=0 note=63 velocity=70 time=0
note_off channel=0 note=58 velocity=0 time=22
note_on channel=0 note=58 velocity=45 time=123
note_off channel=0 note=56 velocity=0 time=245
note_off channel=0 note=52 velocity=0 time=0
note_off channel=0 note=58 velocity=0 time=0
note_on channel=0 note=58 velocity=80 time=0
note_on channel=0 note=56 velocity=55 time=0
note_on channel=0 note=52 velocity=50 time=0
note_off channel=0 note=63 velocity=0 time=89
note_on channel=0 note=63 velocity=80 time=0
note_off channel=0 note=56 velocity=0 time=167
note_off channel=0 note=63 velocity=0 time=0
note_on channel=0 note=63 velocity=60 time=0
note_on channel=0 note=56 velocity=68 time=0
note_off channel=0 note=58 velocity=0 time=11
note_on channel=0 note=58 velocity=68 time=0
note_off channel=0 note=56 velocity=0 time=145
note_off channel=0 note=63 velocity=0 time=134
note_off channel=0 note=52 velocity=0 time=11
note_off channel=0 note=58 velocity=0 time=44
note_on channel=0 note=59 velocity=66 time=1
note_on channel=0 note=64 velocity=75 time=144
note_on channel=0 note=59 velocity=53 time=56
note_off channel=0 note=59 velocity=0 time=1
note_on channel=0 note=76 velocity=46 time=10
note_on channel=0 note=49 velocity=45 time=56
note_off channel=0 note=64 velocity=0 time=44
note_on channel=0 note=64 velocity=76 time=1
note_off channel=0 note=59 velocity=0 time=66
note_on channel=0 note=59 velocity=51 time=1
note_off channel=0 note=76 velocity=0 time=99
note_off channel=0 note=64 velocity=0 time=157
note_on channel=0 note=64 velocity=81 time=0
note_off channel=0 note=49 velocity=0 time=22
note_off channel=0 note=59 velocity=0 time=34
note_on channel=0 note=59 velocity=43 time=0
note_off channel=0 note=64 velocity=0 time=90
note_on channel=0 note=64 velocity=88 time=0
note_off channel=0 note=59 velocity=0 time=112
note_on channel=0 note=49 velocity=57 time=55
note_on channel=0 note=76 velocity=47 time=134
note_off channel=0 note=64 velocity=0 time=67
note_on channel=0 note=64 velocity=87 time=0
note_off channel=0 note=64 velocity=0 time=134
note_on channel=0 note=64 velocity=94 time=0
note_off channel=0 note=49 velocity=0 time=11
note_on channel=0 note=49 velocity=60 time=78
note_off channel=0 note=76 velocity=0 time=33
note_on channel=0 note=76 velocity=59 time=0
note_on channel=0 note=64 velocity=82 time=78
note_off channel=0 note=64 velocity=0 time=1
note_off channel=0 note=76 velocity=0 time=77
note_on channel=0 note=76 velocity=56 time=0
note_on channel=0 note=49 velocity=78 time=11
note_off channel=0 note=49 velocity=0 time=1
note_off channel=0 note=64 velocity=0 time=189
note_on channel=0 note=64 velocity=81 time=0
note_off channel=0 note=76 velocity=0 time=122
note_on channel=0 note=76 velocity=58 time=0
note_on channel=0 note=52 velocity=46 time=12
note_off channel=0 note=64 velocity=0 time=55
note_on channel=0 note=64 velocity=73 time=0
note_off channel=0 note=76 velocity=0 time=122
note_on channel=0 note=76 velocity=62 time=1
note_off channel=0 note=52 velocity=0 time=78
note_off channel=0 note=64 velocity=0 time=89
note_on channel=0 note=64 velocity=66 time=0
note_on channel=0 note=52 velocity=53 time=56
note_off channel=0 note=76 velocity=0 time=56
note_on channel=0 note=76 velocity=63 time=0
note_off channel=0 note=64 velocity=0 time=44
note_on channel=0 note=64 velocity=58 time=0
note_off channel=0 note=76 velocity=0 time=145
note_on channel=0 note=76 velocity=49 time=0
note_off channel=0 note=64 velocity=0 time=414
note_off channel=0 note=76 velocity=0 time=211
note_off channel=0 note=52 velocity=0 time=324
note_off channel=0 note=49 velocity=0 time=44
note_on channel=0 note=49 velocity=55 time=123
note_off channel=0 note=49 velocity=0 time=201
note_on channel=0 note=49 velocity=67 time=11
note_on channel=0 note=56 velocity=61 time=100
note_on channel=0 note=59 velocity=73 time=56
note_off channel=0 note=49 velocity=0 time=11
note_on channel=0 note=63 velocity=81 time=33
note_off channel=0 note=56 velocity=0 time=34
note_on channel=0 note=80 velocity=41 time=78
note_on channel=0 note=68 velocity=53 time=0
note_off channel=0 note=63 velocity=0 time=44
note_on channel=0 note=63 velocity=93 time=0
note_off channel=0 note=59 velocity=0 time=34
note_on channel=0 note=59 velocity=68 time=0
note_on channel=0 note=56 velocity=41 time=11
note_off channel=0 note=63 velocity=0 time=89
note_on channel=0 note=63 velocity=86 time=0
note_on channel=0 note=68 velocity=46 time=22
note_off channel=0 note=68 velocity=0 time=1
note_off channel=0 note=80 velocity=0 time=11
note_off channel=0 note=56 velocity=0 time=200
note_off channel=0 note=59 velocity=0 time=24
note_on channel=0 note=59 velocity=55 time=0
note_off channel=0 note=63 velocity=0 time=44
note_on channel=0 note=63 velocity=100 time=0
note_off channel=0 note=63 velocity=0 time=134
note_on channel=0 note=63 velocity=89 time=0
note_off channel=0 note=68 velocity=0 time=111
note_on channel=0 note=68 velocity=47 time=0
note_off channel=0 note=63 velocity=0 time=67
note_on channel=0 note=63 velocity=86 time=0
note_off channel=0 note=59 velocity=0 time=101
note_off channel=0 note=63 velocity=0 time=44
note_on channel=0 note=63 velocity=95 time=0
note_off channel=0 note=63 velocity=0 time=145
note_on channel=0 note=63 velocity=92 time=0
note_off channel=0 note=63 velocity=0 time=167
note_on channel=0 note=63 velocity=91 time=0
note_off channel=0 note=68 velocity=0 time=167
note_off channel=0 note=63 velocity=0 time=89
note_on channel=0 note=63 velocity=90 time=1
note_on channel=0 note=49 velocity=48 time=378
note_off channel=0 note=63 velocity=0 time=12
note_on channel=0 note=63 velocity=90 time=0
note_on channel=0 note=63 velocity=89 time=200
note_off channel=0 note=63 velocity=0 time=1
note_off channel=0 note=63 velocity=0 time=222
note_on channel=0 note=63 velocity=82 time=0
note_off channel=0 note=63 velocity=0 time=258
note_on channel=0 note=63 velocity=77 time=0
note_off channel=0 note=49 velocity=0 time=66
note_off channel=0 note=63 velocity=0 time=146
note_on channel=0 note=63 velocity=73 time=0
note_off channel=0 note=63 velocity=0 time=468
note_on channel=0 note=63 velocity=54 time=0
note_off channel=0 note=63 velocity=0 time=234
note_on channel=0 note=56 velocity=65 time=22
note_on channel=0 note=44 velocity=67 time=11
note_on channel=0 note=51 velocity=57 time=78
note_off channel=0 note=56 velocity=0 time=100
note_on channel=0 note=54 velocity=70 time=23
note_off channel=0 note=44 velocity=0 time=11
note_off channel=0 note=51 velocity=0 time=11
note_on channel=0 note=63 velocity=73 time=11
note_on channel=0 note=59 velocity=86 time=78
note_off channel=0 note=54 velocity=0 time=67
note_on channel=0 note=54 velocity=48 time=0
note_on channel=0 note=68 velocity=44 time=45
note_off channel=0 note=63 velocity=0 time=22
note_on channel=0 note=75 velocity=31 time=0
note_on channel=0 note=63 velocity=86 time=0
note_off channel=0 note=59 velocity=0 time=11
note_on channel=0 note=59 velocity=51 time=0
note_off channel=0 note=54 velocity=0 time=67
note_off channel=0 note=68 velocity=0 time=78
note_off channel=0 note=75 velocity=0 time=33
note_off channel=0 note=63 velocity=0 time=23
note_on channel=0 note=63 velocity=87 time=0
note_on channel=0 note=56 velocity=34 time=44
note_off channel=0 note=59 velocity=0 time=102
note_on channel=0 note=59 velocity=65 time=0
note_off channel=0 note=56 velocity=0 time=33
note_off channel=0 note=63 velocity=0 time=23
note_on channel=0 note=63 velocity=92 time=0
note_on channel=0 note=44 velocity=55 time=0
note_off channel=0 note=63 velocity=0 time=156
note_on channel=0 note=63 velocity=79 time=0
note_off channel=0 note=59 velocity=0 time=22
note_on channel=0 note=68 velocity=47 time=134
note_on channel=0 note=63 velocity=71 time=44
note_off channel=0 note=63 velocity=0 time=1
note_off channel=0 note=63 velocity=0 time=155
note_on channel=0 note=63 velocity=79 time=0
note_off channel=0 note=68 velocity=0 time=79
note_off channel=0 note=63 velocity=0 time=66
note_on channel=0 note=63 velocity=80 time=0
note_off channel=0 note=63 velocity=0 time=212
note_on channel=0 note=63 velocity=81 time=0
note_on channel=0 note=68 velocity=46 time=100
note_off channel=0 note=63 velocity=0 time=123
note_on channel=0 note=63 velocity=80 time=0
note_off channel=0 note=68 velocity=0 time=22
note_off channel=0 note=63 velocity=0 time=145
note_on channel=0 note=63 velocity=94 time=0
note_on channel=0 note=68 velocity=45 time=56
note_off channel=0 note=63 velocity=0 time=78
note_on channel=0 note=63 velocity=90 time=0
note_off channel=0 note=68 velocity=0 time=56
note_off channel=0 note=63 velocity=0 time=100
note_on channel=0 note=63 velocity=86 time=0
note_off channel=0 note=63 velocity=0 time=134
note_on channel=0 note=63 velocity=80 time=0
note_off channel=0 note=63 velocity=0 time=369
note_on channel=0 note=63 velocity=76 time=0
note_off channel=0 note=44 velocity=0 time=134
note_on channel=0 note=63 velocity=74 time=155
note_off channel=0 note=63 velocity=0 time=1
note_on channel=0 note=44 velocity=48 time=44
note_off channel=0 note=63 velocity=0 time=156
note_on channel=0 note=63 velocity=82 time=0
note_off channel=0 note=44 velocity=0 time=33
note_off channel=0 note=63 velocity=0 time=156
note_on channel=0 note=63 velocity=86 time=0
note_on channel=0 note=59 velocity=48 time=346
note_on channel=0 note=54 velocity=51 time=0
note_off channel=0 note=63 velocity=0 time=22
note_on channel=0 note=63 velocity=89 time=0
note_off channel=0 note=63 velocity=0 time=156
note_on channel=0 note=63 velocity=99 time=0
note_off channel=0 note=59 velocity=0 time=23
note_on channel=0 note=59 velocity=43 time=0
note_off channel=0 note=54 velocity=0 time=78
note_off channel=0 note=63 velocity=0 time=66
note_on channel=0 note=63 velocity=101 time=0
note_off channel=0 note=59 velocity=0 time=34
note_on channel=0 note=58 velocity=50 time=0
note_off channel=0 note=63 velocity=0 time=167
note_off channel=0 note=58 velocity=0 time=0
note_on channel=0 note=63 velocity=96 time=0
note_on channel=0 note=70 velocity=40 time=135
note_off channel=0 note=63 velocity=0 time=45
note_on channel=0 note=63 velocity=97 time=0
note_off channel=0 note=70 velocity=0 time=133
note_off channel=0 note=63 velocity=0 time=45
note_on channel=0 note=63 velocity=99 time=0
note_off channel=0 note=63 velocity=0 time=279
note_on channel=0 note=63 velocity=95 time=0
note_on channel=0 note=63 velocity=92 time=200
note_off channel=0 note=63 velocity=0 time=1
note_off channel=0 note=63 velocity=0 time=166
note_on channel=0 note=63 velocity=92 time=0
note_off channel=0 note=63 velocity=0 time=312
note_on channel=0 note=63 velocity=97 time=1
note_on channel=0 note=63 velocity=93 time=144
note_off channel=0 note=63 velocity=0 time=1
note_off channel=0 note=63 velocity=0 time=233
note_on channel=0 note=63 velocity=86 time=0
note_off channel=0 note=63 velocity=0 time=480
note_on channel=0 note=63 velocity=92 time=1
note_off channel=0 note=63 velocity=0 time=201
note_on channel=0 note=63 velocity=85 time=0
note_off channel=0 note=63 velocity=0 time=267
note_on channel=0 note=63 velocity=92 time=0
note_off channel=0 note=63 velocity=0 time=212
note_on channel=0 note=63 velocity=89 time=0
note_on channel=0 note=63 velocity=91 time=200
note_off channel=0 note=63 velocity=0 time=1
note_off channel=0 note=63 velocity=0 time=211
note_on channel=0 note=63 velocity=74 time=0
note_on channel=0 note=49 velocity=43 time=145
note_off channel=0 note=63 velocity=0 time=111
note_on channel=0 note=63 velocity=57 time=1
note_on channel=0 note=59 velocity=40 time=78
note_on channel=0 note=71 velocity=54 time=55
note_on channel=0 note=63 velocity=76 time=89
note_off channel=0 note=63 velocity=0 time=1
note_off channel=0 note=59 velocity=0 time=56
note_off channel=0 note=71 velocity=0 time=56
note_on channel=0 note=71 velocity=48 time=0
note_off channel=0 note=63 velocity=0 time=11
note_on channel=0 note=63 velocity=71 time=0
note_off channel=0 note=49 velocity=0 time=22
note_off channel=0 note=63 velocity=0 time=123
note_on channel=0 note=63 velocity=76 time=0
note_off channel=0 note=71 velocity=0 time=111
note_on channel=0 note=71 velocity=86 time=1
note_off channel=0 note=63 velocity=0 time=100
note_on channel=0 note=63 velocity=92 time=0
note_off channel=0 note=63 velocity=0 time=201
note_on channel=0 note=63 velocity=77 time=0
note_off channel=0 note=71 velocity=0 time=111
note_on channel=0 note=71 velocity=66 time=0
note_on channel=0 note=63 velocity=94 time=22
note_off channel=0 note=63 velocity=0 time=1
note_off channel=0 note=71 velocity=0 time=111
note_on channel=0 note=71 velocity=53 time=0
note_off channel=0 note=63 velocity=0 time=33
note_on channel=0 note=63 velocity=101 time=0
note_off channel=0 note=63 velocity=0 time=167
note_on channel=0 note=63 velocity=70 time=0
note_off channel=0 note=63 velocity=0 time=167
note_on channel=0 note=63 velocity=80 time=1
note_on channel=0 note=49 velocity=40 time=33
note_off channel=0 note=63 velocity=0 time=212
note_on channel=0 note=63 velocity=80 time=0
note_off channel=0 note=49 velocity=0 time=11
note_off channel=0 note=71 velocity=0 time=56
note_off channel=0 note=63 velocity=0 time=167
note_on channel=0 note=63 velocity=66 time=0
note_on channel=0 note=49 velocity=49 time=67
note_on channel=0 note=71 velocity=43 time=33
note_off channel=0 note=63 velocity=0 time=135
note_on channel=0 note=63 velocity=58 time=0
note_off channel=0 note=71 velocity=0 time=56
note_off channel=0 note=63 velocity=0 time=1170
note_off channel=0 note=49 velocity=0 time=268
note_on channel=0 note=49 velocity=50 time=11
note_on channel=0 note=64 velocity=80 time=78
note_on channel=0 note=76 velocity=37 time=111
note_on channel=0 note=70 velocity=84 time=67
note_off channel=0 note=64 velocity=0 time=56
note_on channel=0 note=64 velocity=92 time=0
note_off channel=0 note=76 velocity=0 time=22
note_on channel=0 note=76 velocity=60 time=0
note_off channel=0 note=64 velocity=0 time=113
note_on channel=0 note=64 velocity=99 time=0
note_off channel=0 note=76 velocity=0 time=100
note_on channel=0 note=76 velocity=51 time=0
note_off channel=0 note=64 velocity=0 time=56
note_on channel=0 note=64 velocity=94 time=0
note_on channel=0 note=59 velocity=41 time=0
note_off channel=0 note=70 velocity=0 time=33
note_on channel=0 note=70 velocity=76 time=0
note_off channel=0 note=76 velocity=0 time=89
note_on channel=0 note=76 velocity=49 time=0
note_off channel=0 note=59 velocity=0 time=34
note_off channel=0 note=70 velocity=0 time=44
note_on channel=0 note=70 velocity=68 time=1
note_off channel=0 note=49 velocity=0 time=44
note_off channel=0 note=64 velocity=0 time=45
note_on channel=0 note=64 velocity=92 time=0
note_off channel=0 note=76 velocity=0 time=111
note_on channel=0 note=76 velocity=42 time=0
note_off channel=0 note=70 velocity=0 time=67
note_on channel=0 note=70 velocity=57 time=0
note_on channel=0 note=49 velocity=51 time=33
note_off channel=0 note=64 velocity=0 time=12
note_on channel=0 note=64 velocity=82 time=0
note_off channel=0 note=76 velocity=0 time=33
note_on channel=0 note=76 velocity=56 time=0
note_off channel=0 note=70 velocity=0 time=67
note_on channel=0 note=70 velocity=49 time=0
note_off channel=0 note=64 velocity=0 time=145
note_on channel=0 note=64 velocity=85 time=0
note_off channel=0 note=49 velocity=0 time=122
note_off channel=0 note=76 velocity=0 time=0
note_on channel=0 note=76 velocity=43 time=0
note_off channel=0 note=64 velocity=0 time=45
note_on channel=0 note=64 velocity=77 time=0
note_off channel=0 note=70 velocity=0 time=22
note_on channel=0 note=70 velocity=40 time=0
note_off channel=0 note=76 velocity=0 time=78
note_on channel=0 note=76 velocity=56 time=0
note_off channel=0 note=70 velocity=0 time=67
note_on channel=0 note=70 velocity=44 time=0
note_off channel=0 note=64 velocity=0 time=56
note_on channel=0 note=64 velocity=76 time=0
note_off channel=0 note=76 velocity=0 time=89
note_on channel=0 note=76 velocity=51 time=0
note_off channel=0 note=70 velocity=0 time=11
note_off channel=0 note=64 velocity=0 time=67
note_on channel=0 note=64 velocity=59 time=0
note_on channel=0 note=49 velocity=43 time=45
note_off channel=0 note=76 velocity=0 time=22
note_on channel=0 note=76 velocity=33 time=56
note_on channel=0 note=76 velocity=60 time=133
note_off channel=0 note=76 velocity=0 time=1
note_off channel=0 note=76 velocity=0 time=279
note_off channel=0 note=49 velocity=0 time=112
note_on channel=0 note=76 velocity=49 time=100
note_off channel=0 note=76 velocity=0 time=245
note_off channel=0 note=64 velocity=0 time=145
note_on channel=0 note=56 velocity=44 time=613
note_on channel=0 note=44 velocity=54 time=45
note_off channel=0 note=56 velocity=0 time=122
note_on channel=0 note=59 velocity=74 time=0
note_on channel=0 note=63 velocity=50 time=67
note_off channel=0 note=44 velocity=0 time=23
note_on channel=0 note=70 velocity=65 time=33
note_off channel=0 note=59 velocity=0 time=78
note_off channel=0 note=63 velocity=0 time=0
note_on channel=0 note=63 velocity=66 time=0
note_on channel=0 note=59 velocity=52 time=0
note_on channel=0 note=68 velocity=60 time=78
note_off channel=0 note=63 velocity=0 time=78
note_on channel=0 note=63 velocity=70 time=0
note_on channel=0 note=44 velocity=52 time=24
note_off channel=0 note=70 velocity=0 time=44
note_off channel=0 note=68 velocity=0 time=89
note_on channel=0 note=68 velocity=74 time=0
note_off channel=0 note=63 velocity=0 time=78
note_on channel=0 note=63 velocity=59 time=0
note_on channel=0 note=56 velocity=51 time=23
note_off channel=0 note=59 velocity=0 time=33
note_off channel=0 note=68 velocity=0 time=78
note_on channel=0 note=68 velocity=55 time=0
note_off channel=0 note=63 velocity=0 time=22
note_on channel=0 note=63 velocity=73 time=0
note_off channel=0 note=63 velocity=0 time=189
note_on channel=0 note=63 velocity=73 time=1
note_off channel=0 note=44 velocity=0 time=56
note_on channel=0 note=56 velocity=58 time=122
note_off channel=0 note=56 velocity=0 time=1
note_off channel=0 note=63 velocity=0 time=10
note_on channel=0 note=63 velocity=82 time=0
note_on channel=0 note=59 velocity=50 time=11
note_on channel=0 note=44 velocity=53 time=34
note_off channel=0 note=68 velocity=0 time=33
note_off channel=0 note=63 velocity=0 time=78
note_on channel=0 note=63 velocity=79 time=0
note_off channel=0 note=56 velocity=0 time=112
note_off channel=0 note=63 velocity=0 time=33
note_on channel=0 note=63 velocity=72 time=0
note_on channel=0 note=56 velocity=45 time=223
note_off channel=0 note=59 velocity=0 time=11
note_off channel=0 note=44 velocity=0 time=45
note_on channel=0 note=75 velocity=35 time=122
note_off channel=0 note=63 velocity=0 time=11
note_off channel=0 note=56 velocity=0 time=0
note_on channel=0 note=63 velocity=83 time=1
note_on channel=0 note=56 velocity=61 time=0
note_on channel=0 note=59 velocity=46 time=33
note_off channel=0 note=56 velocity=0 time=101
note_off channel=0 note=63 velocity=0 time=33
note_on channel=0 note=63 velocity=67 time=0
note_off channel=0 note=75 velocity=0 time=10
note_on channel=0 note=75 velocity=46 time=1
note_off channel=0 note=59 velocity=0 time=122
note_on channel=0 note=56 velocity=54 time=79
note_on channel=0 note=44 velocity=48 time=11
note_off channel=0 note=63 velocity=0 time=57
note_on channel=0 note=63 velocity=80 time=0
note_off channel=0 note=75 velocity=0 time=55
note_off channel=0 note=56 velocity=0 time=57
note_off channel=0 note=44 velocity=0 time=55
note_off channel=0 note=63 velocity=0 time=56
note_on channel=0 note=63 velocity=80 time=0
note_on channel=0 note=59 velocity=66 time=11
note_on channel=0 note=44 velocity=54 time=67
note_on channel=0 note=70 velocity=48 time=66
note_on channel=0 note=56 velocity=58 time=23
note_on channel=0 note=63 velocity=64 time=33
note_off channel=0 note=63 velocity=0 time=1
note_off channel=0 note=70 velocity=0 time=121
note_off channel=0 note=44 velocity=0 time=280
note_off channel=0 note=59 velocity=0 time=22
note_on channel=0 note=70 velocity=56 time=100
note_on channel=0 note=59 velocity=50 time=22
note_off channel=0 note=63 velocity=0 time=67
note_on channel=0 note=63 velocity=70 time=0
note_off channel=0 note=59 velocity=0 time=89
note_off channel=0 note=70 velocity=0 time=11
note_off channel=0 note=56 velocity=0 time=34
note_on channel=0 note=56 velocity=67 time=0
note_on channel=0 note=59 velocity=60 time=11
note_off channel=0 note=63 velocity=0 time=11
note_on channel=0 note=63 velocity=79 time=0
note_on channel=0 note=44 velocity=41 time=78
note_on channel=0 note=70 velocity=46 time=34
note_off channel=0 note=44 velocity=0 time=111
note_off channel=0 note=70 velocity=0 time=23
note_off channel=0 note=59 velocity=0 time=22
note_on channel=0 note=59 velocity=52 time=22
note_off channel=0 note=63 velocity=0 time=22
note_on channel=0 note=56 velocity=68 time=11
note_off channel=0 note=56 velocity=0 time=1
note_on channel=0 note=47 velocity=63 time=22
note_on channel=0 note=54 velocity=51 time=89
note_off channel=0 note=59 velocity=0 time=33
note_on channel=0 note=59 velocity=41 time=0
note_on channel=0 note=52 velocity=51 time=0
note_off channel=0 note=47 velocity=0 time=67
note_on channel=0 note=47 velocity=68 time=0
note_off channel=0 note=56 velocity=0 time=22
note_on channel=0 note=56 velocity=61 time=1
note_on channel=0 note=63 velocity=69 time=66
note_off channel=0 note=54 velocity=0 time=23
note_on channel=0 note=54 velocity=66 time=0
note_off channel=0 note=52 velocity=0 time=33
note_off channel=0 note=56 velocity=0 time=12
note_off channel=0 note=59 velocity=0 time=22
note_on channel=0 note=75 velocity=40 time=0
note_on channel=0 note=59 velocity=38 time=1
note_off channel=0 note=63 velocity=0 time=44
note_on channel=0 note=63 velocity=79 time=0
note_off channel=0 note=59 velocity=0 time=101
note_on channel=0 note=54 velocity=67 time=55
note_off channel=0 note=54 velocity=0 time=1
note_off channel=0 note=63 velocity=0 time=21
note_on channel=0 note=63 velocity=74 time=1
note_off channel=0 note=75 velocity=0 time=67
note_on channel=0 note=66 velocity=42 time=33
note_off channel=0 note=63 velocity=0 time=56
note_on channel=0 note=63 velocity=71 time=0
note_off channel=0 note=54 velocity=0 time=77
note_on channel=0 note=54 velocity=64 time=1
note_off channel=0 note=47 velocity=0 time=55
note_on channel=0 note=47 velocity=70 time=0
note_off channel=0 note=66 velocity=0 time=12
note_on channel=0 note=59 velocity=47 time=11
note_off channel=0 note=63 velocity=0 time=22
note_on channel=0 note=63 velocity=56 time=0
note_on channel=0 note=66 velocity=36 time=33
note_off channel=0 note=54 velocity=0 time=12
note_on channel=0 note=54 velocity=56 time=0
note_off channel=0 note=59 velocity=0 time=100
note_off channel=0 note=66 velocity=0 time=22
note_on channel=0 note=66 velocity=51 time=0
note_off channel=0 note=63 velocity=0 time=34
note_on channel=0 note=63 velocity=69 time=0
note_off channel=0 note=54 velocity=0 time=67
note_off channel=0 note=47 velocity=0 time=66
note_on channel=0 note=47 velocity=55 time=0
note_off channel=0 note=63 velocity=0 time=23
note_on channel=0 note=63 velocity=58 time=0
note_off channel=0 note=66 velocity=0 time=66
note_off channel=0 note=63 velocity=0 time=224
note_on channel=0 note=63 velocity=61 time=0
note_on channel=0 note=59 velocity=41 time=100
note_on channel=0 note=52 velocity=51 time=0
note_off channel=0 note=47 velocity=0 time=11
note_on channel=0 note=47 velocity=49 time=0
note_off channel=0 note=63 velocity=0 time=67
note_on channel=0 note=63 velocity=67 time=0
note_off channel=0 note=52 velocity=0 time=134
note_on channel=0 note=52 velocity=55 time=0
note_on channel=0 note=66 velocity=49 time=11
note_off channel=0 note=47 velocity=0 time=89
note_on channel=0 note=47 velocity=58 time=0
note_off channel=0 note=59 velocity=0 time=11
note_off channel=0 note=63 velocity=0 time=56
note_on channel=0 note=63 velocity=65 time=0
note_off channel=0 note=52 velocity=0 time=89
note_on channel=0 note=52 velocity=56 time=0
note_off channel=0 note=66 velocity=0 time=78
note_on channel=0 note=66 velocity=41 time=0
note_on channel=0 note=63 velocity=46 time=101
note_off channel=0 note=63 velocity=0 time=1
note_off channel=0 note=66 velocity=0 time=33
note_off channel=0 note=47 velocity=0 time=145
note_off channel=0 note=52 velocity=0 time=67
note_on channel=0 note=52 velocity=43 time=0
note_on channel=0 note=66 velocity=42 time=44
note_on channel=0 note=58 velocity=43 time=0
note_on channel=0 note=47 velocity=51 time=45
note_off channel=0 note=66 velocity=0 time=312
note_off channel=0 note=58 velocity=0 time=0
note_on channel=0 note=66 velocity=69 time=0
note_off channel=0 note=63 velocity=0 time=77
note_off channel=0 note=66 velocity=0 time=79
note_on channel=0 note=66 velocity=88 time=0
note_off channel=0 note=52 velocity=0 time=201
note_on channel=0 note=52 velocity=50 time=0
note_off channel=0 note=66 velocity=0 time=122
note_on channel=0 note=66 velocity=98 time=0
note_off channel=0 note=52 velocity=0 time=23
note_off channel=0 note=47 velocity=0 time=178
note_on channel=0 note=61 velocity=49 time=189
note_off channel=0 note=66 velocity=0 time=67
note_on channel=0 note=66 velocity=65 time=0
note_on channel=0 note=54 velocity=46 time=145
note_on channel=0 note=70 velocity=39 time=11
note_on channel=0 note=51 velocity=56 time=0
note_off channel=0 note=61 velocity=0 time=11
note_on channel=0 note=61 velocity=46 time=0
note_off channel=0 note=66 velocity=0 time=112
note_on channel=0 note=66 velocity=54 time=0
note_off channel=0 note=54 velocity=0 time=79
note_off channel=0 note=70 velocity=0 time=11
note_off channel=0 note=66 velocity=0 time=45
note_on channel=0 note=66 velocity=60 time=0
note_on channel=0 note=63 velocity=51 time=0
note_off channel=0 note=51 velocity=0 time=133
note_on channel=0 note=51 velocity=65 time=1
note_off channel=0 note=66 velocity=0 time=44
note_on channel=0 note=66 velocity=60 time=0
note_on channel=0 note=51 velocity=51 time=100
note_off channel=0 note=51 velocity=0 time=1
note_off channel=0 note=61 velocity=0 time=77
note_off channel=0 note=66 velocity=0 time=34
note_on channel=0 note=66 velocity=67 time=0
note_on channel=0 note=63 velocity=49 time=111
note_off channel=0 note=63 velocity=0 time=1
note_off channel=0 note=66 velocity=0 time=44
note_on channel=0 note=66 velocity=74 time=0
note_on channel=0 note=54 velocity=52 time=134
note_off channel=0 note=51 velocity=0 time=10
note_off channel=0 note=63 velocity=0 time=0
note_on channel=0 note=63 velocity=53 time=1
note_on channel=0 note=51 velocity=56 time=0
note_off channel=0 note=66 velocity=0 time=22
note_on channel=0 note=66 velocity=56 time=0
note_off channel=0 note=66 velocity=0 time=212
note_on channel=0 note=66 velocity=53 time=0
note_off channel=0 note=51 velocity=0 time=11
note_on channel=0 note=51 velocity=49 time=0
note_off channel=0 note=66 velocity=0 time=178
note_on channel=0 note=66 velocity=45 time=78
note_off channel=0 note=54 velocity=0 time=212
note_off channel=0 note=63 velocity=0 time=0
note_off channel=0 note=66 velocity=0 time=0
note_on channel=0 note=66 velocity=47 time=0
note_on channel=0 note=63 velocity=95 time=0
note_on channel=0 note=54 velocity=65 time=0
note_off channel=0 note=51 velocity=0 time=22
note_off channel=0 note=66 velocity=0 time=145
note_off channel=0 note=63 velocity=0 time=56
note_on channel=0 note=63 velocity=85 time=0
note_on channel=0 note=51 velocity=46 time=45
note_on channel=0 note=66 velocity=38 time=257
note_off channel=0 note=54 velocity=0 time=112
note_on channel=0 note=61 velocity=49 time=55
note_off channel=0 note=63 velocity=0 time=11
note_on channel=0 note=63 velocity=75 time=1
note_on channel=0 note=54 velocity=54 time=0
note_off channel=0 note=51 velocity=0 time=22
note_on channel=0 note=51 velocity=66 time=11
note_off channel=0 note=61 velocity=0 time=133
note_off channel=0 note=66 velocity=0 time=1
note_off channel=0 note=54 velocity=0 time=123
note_off channel=0 note=51 velocity=0 time=590
note_on channel=0 note=58 velocity=45 time=45
note_on channel=0 note=51 velocity=50 time=111
note_off channel=0 note=58 velocity=0 time=34
note_on channel=0 note=58 velocity=64 time=0
note_off channel=0 note=63 velocity=0 time=56
note_off channel=0 note=58 velocity=0 time=133
note_off channel=0 note=51 velocity=0 time=22
note_on channel=0 note=66 velocity=67 time=45
note_on channel=0 note=73 velocity=46 time=78
note_on channel=0 note=54 velocity=72 time=0
note_off channel=0 note=66 velocity=0 time=56
note_on channel=0 note=66 velocity=69 time=0
note_on channel=0 note=51 velocity=57 time=66
note_on channel=0 note=66 velocity=80 time=57
note_off channel=0 note=66 velocity=0 time=1
note_on channel=0 note=63 velocity=42 time=11
note_off channel=0 note=73 velocity=0 time=122
note_on channel=0 note=73 velocity=42 time=0
note_off channel=0 note=63 velocity=0 time=67
note_off channel=0 note=66 velocity=0 time=11
note_on channel=0 note=66 velocity=80 time=0
note_off channel=0 note=51 velocity=0 time=145
note_off channel=0 note=66 velocity=0 time=33
note_on channel=0 note=66 velocity=85 time=1
note_off channel=0 note=66 velocity=0 time=167
note_on channel=0 note=66 velocity=86 time=0
note_off channel=0 note=54 velocity=0 time=200
note_on channel=0 note=63 velocity=45 time=11
note_on channel=0 note=61 velocity=47 time=0
note_off channel=0 note=66 velocity=0 time=23
note_on channel=0 note=66 velocity=85 time=0
note_on channel=0 note=51 velocity=43 time=0
note_off channel=0 note=73 velocity=0 time=89
note_on channel=0 note=73 velocity=63 time=0
note_on channel=0 note=54 velocity=50 time=45
note_off channel=0 note=63 velocity=0 time=66
note_off channel=0 note=66 velocity=0 time=12
note_on channel=0 note=66 velocity=76 time=0
note_off channel=0 note=61 velocity=0 time=122
note_off channel=0 note=54 velocity=0 time=56
note_off channel=0 note=73 velocity=0 time=22
note_on channel=0 note=73 velocity=62 time=0
note_off channel=0 note=66 velocity=0 time=56
note_on channel=0 note=66 velocity=69 time=0
note_off channel=0 note=51 velocity=0 time=45
note_off channel=0 note=73 velocity=0 time=111
note_on channel=0 note=63 velocity=46 time=11
note_off channel=0 note=66 velocity=0 time=11
note_on channel=0 note=73 velocity=54 time=0
note_on channel=0 note=66 velocity=74 time=0
note_on channel=0 note=61 velocity=53 time=0
note_on channel=0 note=54 velocity=62 time=11
note_on channel=0 note=51 velocity=61 time=0
note_off channel=0 note=66 velocity=0 time=123
note_on channel=0 note=66 velocity=58 time=0
note_off channel=0 note=63 velocity=0 time=145
note_off channel=0 note=66 velocity=0 time=202
note_on channel=0 note=66 velocity=57 time=0
note_off channel=0 note=61 velocity=0 time=33
note_off channel=0 note=73 velocity=0 time=67
note_off channel=0 note=66 velocity=0 time=34
note_on channel=0 note=61 velocity=51 time=22
note_on channel=0 note=63 velocity=65 time=11
note_off channel=0 note=51 velocity=0 time=55
note_on channel=0 note=51 velocity=74 time=12
note_off channel=0 note=51 velocity=0 time=156
note_on channel=0 note=51 velocity=83 time=0
note_off channel=0 note=61 velocity=0 time=156
note_off channel=0 note=51 velocity=0 time=178
note_on channel=0 note=51 velocity=59 time=0
note_off channel=0 note=63 velocity=0 time=11
note_off channel=0 note=54 velocity=0 time=145
note_off channel=0 note=51 velocity=0 time=134
note_on channel=0 note=51 velocity=43 time=0
note_off channel=0 note=51 velocity=0 time=379
note_on channel=0 note=56 velocity=53 time=123
note_on channel=0 note=49 velocity=50 time=11
note_on channel=0 note=61 velocity=43 time=11
note_off channel=0 note=56 velocity=0 time=134
note_on channel=0 note=63 velocity=85 time=0
note_on channel=0 note=56 velocity=56 time=0
note_off channel=0 note=61 velocity=0 time=89
note_on channel=0 note=63 velocity=79 time=44
note_off channel=0 note=63 velocity=0 time=1
note_off channel=0 note=56 velocity=0 time=22
note_on channel=0 note=56 velocity=49 time=0
note_off channel=0 note=49 velocity=0 time=68
note_on channel=0 note=49 velocity=71 time=0
note_off channel=0 note=63 velocity=0 time=55
note_on channel=0 note=63 velocity=80 time=0
note_off channel=0 note=56 velocity=0 time=123
note_off channel=0 note=63 velocity=0 time=89
note_on channel=0 note=63 velocity=69 time=0
note_on channel=0 note=56 velocity=44 time=223
note_off channel=0 note=63 velocity=0 time=67
note_on channel=0 note=63 velocity=74 time=0
note_off channel=0 note=49 velocity=0 time=78
note_on channel=0 note=49 velocity=78 time=0
note_off channel=0 note=56 velocity=0 time=44
note_off channel=0 note=63 velocity=0 time=23
note_on channel=0 note=63 velocity=68 time=0
note_off channel=0 note=49 velocity=0 time=134
note_on channel=0 note=49 velocity=85 time=0
note_off channel=0 note=63 velocity=0 time=44
note_on channel=0 note=63 velocity=71 time=0
note_off channel=0 note=63 velocity=0 time=234
note_on channel=0 note=63 velocity=65 time=0
note_off channel=0 note=63 velocity=0 time=134
note_on channel=0 note=63 velocity=60 time=0
note_off channel=0 note=63 velocity=0 time=234
note_on channel=0 note=63 velocity=52 time=0
note_off channel=0 note=49 velocity=0 time=78
note_on channel=0 note=49 velocity=58 time=0
note_off channel=0 note=63 velocity=0 time=212
note_on channel=0 note=63 velocity=71 time=0
note_off channel=0 note=63 velocity=0 time=191
note_on channel=0 note=63 velocity=75 time=0
note_off channel=0 note=63 velocity=0 time=189
note_on channel=0 note=63 velocity=81 time=0
note_off channel=0 note=63 velocity=0 time=201
note_on channel=0 note=63 velocity=81 time=0
note_off channel=0 note=63 velocity=0 time=267
note_on channel=0 note=63 velocity=69 time=0
note_off channel=0 note=63 velocity=0 time=212
note_on channel=0 note=63 velocity=66 time=0
note_off channel=0 note=49 velocity=0 time=22
note_off channel=0 note=63 velocity=0 time=312
note_on channel=0 note=63 velocity=55 time=0
note_on channel=0 note=49 velocity=55 time=78
note_off channel=0 note=63 velocity=0 time=123
note_on channel=0 note=63 velocity=62 time=134
note_off channel=0 note=49 velocity=0 time=44
note_on channel=0 note=49 velocity=59 time=134
note_off channel=0 note=63 velocity=0 time=89
note_off channel=0 note=49 velocity=0 time=313
note_on channel=0 note=49 velocity=53 time=12
note_on channel=0 note=56 velocity=45 time=33
note_on channel=0 note=59 velocity=54 time=78
note_off channel=0 note=49 velocity=0 time=34
note_on channel=0 note=64 velocity=60 time=33
note_off channel=0 note=56 velocity=0 time=78
note_off channel=0 note=59 velocity=0 time=0
note_on channel=0 note=68 velocity=71 time=0
note_on channel=0 note=56 velocity=52 time=0
note_off channel=0 note=64 velocity=0 time=100
note_on channel=0 note=64 velocity=64 time=0
note_off channel=0 note=68 velocity=0 time=78
note_on channel=0 note=68 velocity=74 time=0
note_on channel=0 note=49 velocity=48 time=56
note_off channel=0 note=64 velocity=0 time=22
note_on channel=0 note=64 velocity=73 time=0
note_off channel=0 note=56 velocity=0 time=45
note_off channel=0 note=68 velocity=0 time=100
note_on channel=0 note=68 velocity=64 time=0
note_off channel=0 note=64 velocity=0 time=11
note_on channel=0 note=64 velocity=80 time=0
note_off channel=0 note=49 velocity=0 time=67
note_off channel=0 note=64 velocity=0 time=111
note_on channel=0 note=64 velocity=82 time=1
note_off channel=0 note=68 velocity=0 time=55
note_on channel=0 note=68 velocity=57 time=0
note_off channel=0 note=68 velocity=0 time=134
note_on channel=0 note=68 velocity=63 time=0
note_off channel=0 note=64 velocity=0 time=56
note_on channel=0 note=64 velocity=89 time=0
note_on channel=0 note=76 velocity=40 time=67
note_off channel=0 note=64 velocity=0 time=122
note_on channel=0 note=64 velocity=73 time=0
note_off channel=0 note=76 velocity=0 time=12
note_off channel=0 note=68 velocity=0 time=44
note_on channel=0 note=68 velocity=55 time=0
note_on channel=0 note=49 velocity=40 time=89
note_off channel=0 note=68 velocity=0 time=89
note_on channel=0 note=68 velocity=53 time=0
note_off channel=0 note=64 velocity=0 time=11
note_on channel=0 note=64 velocity=84 time=1
note_off channel=0 note=49 velocity=0 time=123
note_on channel=0 note=64 velocity=69 time=0
note_on channel=0 note=49 velocity=52 time=0
note_off channel=0 note=64 velocity=0 time=1
note_on channel=0 note=76 velocity=42 time=11
note_off channel=0 note=76 velocity=0 time=156
note_off channel=0 note=64 velocity=0 time=55
note_on channel=0 note=64 velocity=82 time=0
note_off channel=0 note=68 velocity=0 time=33
note_off channel=0 note=64 velocity=0 time=134
note_on channel=0 note=64 velocity=69 time=0
note_off channel=0 note=64 velocity=0 time=167
note_on channel=0 note=64 velocity=59 time=1
note_off channel=0 note=49 velocity=0 time=178
note_on channel=0 note=49 velocity=64 time=0
note_off channel=0 note=64 velocity=0 time=134
note_on channel=0 note=64 velocity=52 time=0
note_off channel=0 note=49 velocity=0 time=133
note_on channel=0 note=49 velocity=51 time=0
note_off channel=0 note=64 velocity=0 time=157
note_on channel=0 note=64 velocity=49 time=89
note_off channel=0 note=64 velocity=0 time=189
note_off channel=0 note=49 velocity=0 time=111
note_on channel=0 note=54 velocity=42 time=849
note_on channel=0 note=59 velocity=59 time=11
note_on channel=0 note=68 velocity=47 time=134
note_off channel=0 note=54 velocity=0 time=44
note_on channel=0 note=63 velocity=77 time=12
note_off channel=0 note=59 velocity=0 time=55
note_on channel=0 note=59 velocity=40 time=179
note_off channel=0 note=63 velocity=0 time=33
note_on channel=0 note=63 velocity=85 time=0
note_on channel=0 note=68 velocity=62 time=33
note_off channel=0 note=68 velocity=0 time=1
note_off channel=0 note=63 velocity=0 time=111
note_on channel=0 note=63 velocity=89 time=0
note_off channel=0 note=59 velocity=0 time=78
note_off channel=0 note=68 velocity=0 time=22
note_off channel=0 note=63 velocity=0 time=34
note_on channel=0 note=63 velocity=72 time=0
note_on channel=0 note=68 velocity=52 time=44
note_off channel=0 note=63 velocity=0 time=145
note_on channel=0 note=63 velocity=86 time=0
note_off channel=0 note=68 velocity=0 time=178
note_on channel=0 note=68 velocity=41 time=0
note_on channel=0 note=56 velocity=51 time=0
note_on channel=0 note=51 velocity=46 time=12
note_off channel=0 note=63 velocity=0 time=100
note_on channel=0 note=63 velocity=93 time=0
note_on channel=0 note=59 velocity=46 time=22
note_off channel=0 note=68 velocity=0 time=33
note_off channel=0 note=56 velocity=0 time=56
note_off channel=0 note=63 velocity=0 time=46
note_on channel=0 note=63 velocity=92 time=0
note_on channel=0 note=68 velocity=45 time=22
note_on channel=0 note=44 velocity=43 time=23
note_off channel=0 note=68 velocity=0 time=155
note_off channel=0 note=63 velocity=0 time=1
note_on channel=0 note=68 velocity=42 time=0
note_on channel=0 note=63 velocity=91 time=0
note_off channel=0 note=59 velocity=0 time=44
note_off channel=0 note=44 velocity=0 time=12
note_off channel=0 note=63 velocity=0 time=89
note_on channel=0 note=63 velocity=95 time=0
note_off channel=0 note=68 velocity=0 time=11
note_off channel=0 note=63 velocity=0 time=167
note_on channel=0 note=63 velocity=93 time=0
note_off channel=0 note=63 velocity=0 time=156
note_on channel=0 note=63 velocity=91 time=0
note_off channel=0 note=51 velocity=0 time=201
note_off channel=0 note=63 velocity=0 time=44
note_on channel=0 note=63 velocity=89 time=0
note_off channel=0 note=63 velocity=0 time=223
note_on channel=0 note=63 velocity=105 time=0
note_on channel=0 note=59 velocity=52 time=0
note_off channel=0 note=63 velocity=0 time=134
note_on channel=0 note=63 velocity=103 time=0
note_off channel=0 note=63 velocity=0 time=201
note_on channel=0 note=63 velocity=96 time=0
note_off channel=0 note=59 velocity=0 time=155
note_off channel=0 note=63 velocity=0 time=12
note_on channel=0 note=63 velocity=91 time=0
note_off channel=0 note=63 velocity=0 time=245
note_on channel=0 note=63 velocity=77 time=0
note_off channel=0 note=63 velocity=0 time=536
note_on channel=0 note=59 velocity=46 time=22
note_on channel=0 note=71 velocity=41 time=123
note_off channel=0 note=59 velocity=0 time=11
note_on channel=0 note=59 velocity=49 time=0
note_on channel=0 note=54 velocity=59 time=0
note_on channel=0 note=63 velocity=82 time=56
note_off channel=0 note=71 velocity=0 time=89
note_off channel=0 note=54 velocity=0 time=0
note_off channel=0 note=63 velocity=0 time=112
note_on channel=0 note=63 velocity=98 time=0
note_off channel=0 note=59 velocity=0 time=66
note_on channel=0 note=59 velocity=46 time=0
note_on channel=0 note=75 velocity=53 time=45
note_on channel=0 note=63 velocity=98 time=100
note_off channel=0 note=63 velocity=0 time=1
note_off channel=0 note=75 velocity=0 time=144
note_off channel=0 note=63 velocity=0 time=22
note_on channel=0 note=63 velocity=94 time=0
note_off channel=0 note=59 velocity=0 time=22
note_on channel=0 note=75 velocity=41 time=34
note_off channel=0 note=63 velocity=0 time=122
note_on channel=0 note=63 velocity=88 time=1
note_on channel=0 note=59 velocity=49 time=22
note_off channel=0 note=75 velocity=0 time=44
note_on channel=0 note=75 velocity=45 time=1
note_off channel=0 note=59 velocity=0 time=89
note_off channel=0 note=75 velocity=0 time=45
note_off channel=0 note=63 velocity=0 time=33
note_on channel=0 note=63 velocity=92 time=0
note_on channel=0 note=63 velocity=86 time=179
note_off channel=0 note=63 velocity=0 time=1
note_off channel=0 note=63 velocity=0 time=166
note_on channel=0 note=63 velocity=95 time=1
note_on channel=0 note=75 velocity=51 time=11
note_on channel=0 note=63 velocity=94 time=122
note_off channel=0 note=63 velocity=0 time=1
note_off channel=0 note=75 velocity=0 time=200
note_off channel=0 note=63 velocity=0 time=44
note_on channel=0 note=63 velocity=96 time=1
note_off channel=0 note=63 velocity=0 time=178
note_on channel=0 note=63 velocity=87 time=0
note_on channel=0 note=52 velocity=50 time=122
note_off channel=0 note=63 velocity=0 time=45
note_on channel=0 note=63 velocity=90 time=0
note_on channel=0 note=47 velocity=47 time=67
note_on channel=0 note=75 velocity=37 time=11
note_off channel=0 note=63 velocity=0 time=67
note_on channel=0 note=63 velocity=91 time=0
note_on channel=0 note=59 velocity=41 time=33
note_off channel=0 note=52 velocity=0 time=89
note_off channel=0 note=63 velocity=0 time=12
note_on channel=0 note=63 velocity=96 time=0
note_off channel=0 note=63 velocity=0 time=167
note_on channel=0 note=63 velocity=99 time=0
note_off channel=0 note=75 velocity=0 time=56
note_off channel=0 note=59 velocity=0 time=22
note_off channel=0 note=47 velocity=0 time=45
note_off channel=0 note=63 velocity=0 time=11
note_on channel=0 note=63 velocity=95 time=0
note_on channel=0 note=52 velocity=41 time=22
note_off channel=0 note=63 velocity=0 time=123
note_on channel=0 note=63 velocity=91 time=0
note_off channel=0 note=52 velocity=0 time=33
note_on channel=0 note=63 velocity=83 time=100
note_off channel=0 note=63 velocity=0 time=1
note_off channel=0 note=63 velocity=0 time=346
note_on channel=0 note=63 velocity=73 time=0
note_off channel=0 note=63 velocity=0 time=301
note_on channel=0 note=63 velocity=56 time=0
note_on channel=0 note=52 velocity=46 time=0
note_off channel=0 note=52 velocity=0 time=267
note_off channel=0 note=63 velocity=0 time=45
note_on channel=0 note=56 velocity=43 time=100
note_on channel=0 note=63 velocity=71 time=156
note_on channel=0 note=49 velocity=43 time=0
note_off channel=0 note=56 velocity=0 time=78
note_on channel=0 note=68 velocity=54 time=0
note_on channel=0 note=56 velocity=51 time=0
note_off channel=0 note=63 velocity=0 time=156
note_on channel=0 note=63 velocity=82 time=0
note_off channel=0 note=49 velocity=0 time=112
note_off channel=0 note=63 velocity=0 time=133
note_on channel=0 note=63 velocity=77 time=1
note_off channel=0 note=56 velocity=0 time=77
note_on channel=0 note=61 velocity=44 time=12
note_on channel=0 note=63 velocity=68 time=111
note_off channel=0 note=63 velocity=0 time=1
note_off channel=0 note=68 velocity=0 time=10
note_on channel=0 note=56 velocity=43 time=134
note_off channel=0 note=63 velocity=0 time=11
note_on channel=0 note=63 velocity=81 time=0
note_on channel=0 note=61 velocity=55 time=11
note_off channel=0 note=61 velocity=0 time=1
note_off channel=0 note=56 velocity=0 time=101
note_off channel=0 note=61 velocity=0 time=44
note_on channel=0 note=61 velocity=50 time=1
note_off channel=0 note=63 velocity=0 time=44
note_on channel=0 note=63 velocity=84 time=0
note_off channel=0 note=63 velocity=0 time=167
note_on channel=0 note=63 velocity=84 time=0
note_off channel=0 note=61 velocity=0 time=90
note_on channel=0 note=61 velocity=47 time=0
note_off channel=0 note=63 velocity=0 time=77
note_on channel=0 note=63 velocity=89 time=1
note_on channel=0 note=56 velocity=42 time=0
note_off channel=0 note=63 velocity=0 time=156
note_on channel=0 note=63 velocity=80 time=0
note_off channel=0 note=56 velocity=0 time=156
note_off channel=0 note=63 velocity=0 time=0
note_on channel=0 note=63 velocity=75 time=0
note_off channel=0 note=63 velocity=0 time=189
note_on channel=0 note=63 velocity=67 time=0
note_off channel=0 note=61 velocity=0 time=45
note_off channel=0 note=63 velocity=0 time=312
note_on channel=0 note=63 velocity=57 time=0
note_on channel=0 note=49 velocity=43 time=223
note_off channel=0 note=63 velocity=0 time=44
note_on channel=0 note=63 velocity=53 time=0
note_off channel=0 note=49 velocity=0 time=112
note_off channel=0 note=63 velocity=0 time=122
note_on channel=0 note=63 velocity=82 time=0
note_off channel=0 note=63 velocity=0 time=135
note_on channel=0 note=63 velocity=60 time=0
note_off channel=0 note=63 velocity=0 time=256
note_on channel=0 note=63 velocity=40 time=90
note_off channel=0 note=63 velocity=0 time=223
note_on channel=0 note=49 velocity=58 time=33
note_on channel=0 note=68 velocity=33 time=89
note_on channel=0 note=56 velocity=47 time=0
note_on channel=0 note=59 velocity=47 time=23
note_on channel=0 note=63 velocity=74 time=100
note_off channel=0 note=59 velocity=0 time=45
note_off channel=0 note=49 velocity=0 time=10
note_off channel=0 note=68 velocity=0 time=0
note_on channel=0 note=68 velocity=63 time=1
note_on channel=0 note=49 velocity=61 time=0
note_off channel=0 note=63 velocity=0 time=100
note_on channel=0 note=64 velocity=78 time=0
note_on channel=0 note=68 velocity=65 time=33
note_off channel=0 note=68 velocity=0 time=1
note_on channel=0 note=59 velocity=49 time=55
note_off channel=0 note=64 velocity=0 time=45
note_on channel=0 note=64 velocity=86 time=0
note_off channel=0 note=68 velocity=0 time=100
note_on channel=0 note=68 velocity=43 time=0
note_off channel=0 note=56 velocity=0 time=67
note_off channel=0 note=59 velocity=0 time=0
note_off channel=0 note=64 velocity=0 time=11
note_on channel=0 note=64 velocity=94 time=0
note_off channel=0 note=49 velocity=0 time=67
note_off channel=0 note=68 velocity=0 time=0
note_on channel=0 note=68 velocity=41 time=0
note_on channel=0 note=49 velocity=57 time=0
note_off channel=0 note=64 velocity=0 time=89
note_on channel=0 note=64 velocity=81 time=0
note_off channel=0 note=68 velocity=0 time=67
note_on channel=0 note=68 velocity=43 time=0
note_off channel=0 note=64 velocity=0 time=178
note_on channel=0 note=64 velocity=85 time=0
note_off channel=0 note=68 velocity=0 time=23
note_off channel=0 note=64 velocity=0 time=168
note_on channel=0 note=64 velocity=74 time=0
note_off channel=0 note=64 velocity=0 time=156
note_on channel=0 note=64 velocity=77 time=0
note_off channel=0 note=49 velocity=0 time=67
note_off channel=0 note=64 velocity=0 time=245
note_on channel=0 note=64 velocity=53 time=0
note_on channel=0 note=49 velocity=55 time=0
note_on channel=0 note=61 velocity=55 time=22
note_off channel=0 note=49 velocity=0 time=413
note_off channel=0 note=64 velocity=0 time=44
note_on channel=0 note=64 velocity=45 time=0
note_off channel=0 note=61 velocity=0 time=22
note_on channel=0 note=61 velocity=57 time=1
note_on channel=0 note=49 velocity=42 time=156
note_off channel=0 note=64 velocity=0 time=22
note_on channel=0 note=64 velocity=50 time=0
note_off channel=0 note=64 velocity=0 time=156
note_off channel=0 note=49 velocity=0 time=112
note_on channel=0 note=49 velocity=66 time=11
note_off channel=0 note=61 velocity=0 time=22
note_on channel=0 note=61 velocity=76 time=0
note_off channel=0 note=61 velocity=0 time=189
note_on channel=0 note=61 velocity=65 time=0
note_off channel=0 note=61 velocity=0 time=414
note_on channel=0 note=61 velocity=76 time=0
note_off channel=0 note=61 velocity=0 time=156
note_on channel=0 note=61 velocity=60 time=0
note_off channel=0 note=61 velocity=0 time=178
note_on channel=0 note=61 velocity=68 time=0
note_off channel=0 note=49 velocity=0 time=146
note_off channel=0 note=61 velocity=0 time=43
note_on channel=0 note=61 velocity=56 time=1
note_off channel=0 note=61 velocity=0 time=401
note_on channel=0 note=44 velocity=51 time=11
note_on channel=0 note=54 velocity=44 time=11
note_on channel=0 note=59 velocity=56 time=78
note_off channel=0 note=54 velocity=0 time=89
note_on channel=0 note=54 velocity=46 time=1
note_on channel=0 note=70 velocity=35 time=78
note_on channel=0 note=63 velocity=94 time=0
note_off channel=0 note=44 velocity=0 time=10
note_off channel=0 note=59 velocity=0 time=101
note_on channel=0 note=59 velocity=58 time=0
note_off channel=0 note=70 velocity=0 time=78
note_on channel=0 note=70 velocity=39 time=0
note_on channel=0 note=63 velocity=100 time=100
note_off channel=0 note=63 velocity=0 time=1
note_on channel=0 note=44 velocity=39 time=22
note_off channel=0 note=54 velocity=0 time=22
note_off channel=0 note=70 velocity=0 time=11
note_on channel=0 note=70 velocity=40 time=0
note_off channel=0 note=63 velocity=0 time=111
note_off channel=0 note=59 velocity=0 time=1
note_on channel=0 note=63 velocity=92 time=0
note_off channel=0 note=44 velocity=0 time=22
note_off channel=0 note=70 velocity=0 time=12
note_on channel=0 note=70 velocity=85 time=0
note_on channel=0 note=59 velocity=40 time=112
note_off channel=0 note=63 velocity=0 time=89
note_on channel=0 note=63 velocity=95 time=0
note_off channel=0 note=59 velocity=0 time=201
note_off channel=0 note=70 velocity=0 time=10
note_on channel=0 note=70 velocity=71 time=1
note_on channel=0 note=70 velocity=55 time=144
note_off channel=0 note=70 velocity=0 time=1
note_off channel=0 note=63 velocity=0 time=44
note_on channel=0 note=63 velocity=88 time=0
note_on channel=0 note=44 velocity=48 time=78
note_off channel=0 note=63 velocity=0 time=100
note_on channel=0 note=63 velocity=90 time=0
note_off channel=0 note=70 velocity=0 time=156
note_off channel=0 note=63 velocity=0 time=22
note_on channel=0 note=63 velocity=80 time=1
note_on channel=0 note=63 velocity=76 time=133
note_off channel=0 note=63 velocity=0 time=1
note_off channel=0 note=44 velocity=0 time=55
note_off channel=0 note=63 velocity=0 time=278
note_on channel=0 note=63 velocity=92 time=1
note_on channel=0 note=44 velocity=41 time=22
note_off channel=0 note=63 velocity=0 time=223
note_on channel=0 note=63 velocity=84 time=0
note_off channel=0 note=44 velocity=0 time=592
note_off channel=0 note=63 velocity=0 time=111
note_on channel=0 note=63 velocity=73 time=0
note_on channel=0 note=44 velocity=50 time=56
note_off channel=0 note=44 velocity=0 time=134
note_off channel=0 note=63 velocity=0 time=289
note_on channel=0 note=63 velocity=71 time=1
note_off channel=0 note=63 velocity=0 time=836
note_on channel=0 note=63 velocity=64 time=0
note_off channel=0 note=63 velocity=0 time=1138
note_on channel=0 note=63 velocity=78 time=434
note_off channel=0 note=63 velocity=0 time=390
note_on channel=0 note=23 velocity=57 time=1183
note_off channel=0 note=23 velocity=0 time=145
note_on channel=0 note=65 velocity=0 time=635
note_off channel=0 note=65 velocity=0 time=11