note_on channel=0 note=44 velocity=54 time=279
note_on channel=0 note=56 velocity=47 time=602
note_off channel=0 note=56 velocity=0 time=189
note_on channel=0 note=56 velocity=46 time=245
note_off channel=0 note=44 velocity=0 time=12
note_off channel=0 note=56 velocity=0 time=244
note_on channel=0 note=44 velocity=44 time=358
note_on channel=0 note=63 velocity=51 time=223
note_off channel=0 note=44 velocity=0 time=44
note_off channel=0 note=63 velocity=0 time=324
note_on channel=0 note=56 velocity=60 time=413
note_off channel=0 note=56 velocity=0 time=145
note_on channel=0 note=56 velocity=29 time=624
note_off channel=0 note=56 velocity=0 time=135
note_on channel=0 note=56 velocity=55 time=780
note_off channel=0 note=56 velocity=0 time=167
note_on channel=0 note=56 velocity=50 time=602
note_off channel=0 note=56 velocity=0 time=156
note_on channel=0 note=56 velocity=64 time=2165
note_off channel=0 note=56 velocity=0 time=189
note_on channel=0 note=56 velocity=57 time=267
note_off channel=0 note=56 velocity=0 time=156
note_on channel=0 note=56 velocity=58 time=346
note_off channel=0 note=56 velocity=0 time=134
note_on channel=0 note=51 velocity=41 time=134
note_off channel=0 note=51 velocity=0 time=357
note_on channel=0 note=56 velocity=42 time=1004
note_on channel=0 note=44 velocity=80 time=0
note_on channel=0 note=52 velocity=62 time=100
note_off channel=0 note=56 velocity=0 time=89
note_on channel=0 note=68 velocity=49 time=0
note_on channel=0 note=56 velocity=51 time=0
note_on channel=0 note=63 velocity=48 time=11
note_on channel=0 note=44 velocity=69 time=0
note_off channel=0 note=44 velocity=0 time=1
note_on channel=0 note=58 velocity=73 time=55
note_off channel=0 note=56 velocity=0 time=301
note_off channel=0 note=68 velocity=0 time=22
note_on channel=0 note=68 velocity=52 time=0
note_off channel=0 note=63 velocity=0 time=22
note_off channel=0 note=68 velocity=0 time=123
note_off channel=0 note=58 velocity=0 time=401
note_off channel=0 note=52 velocity=0 time=46
note_on channel=0 note=56 velocity=68 time=134
note_off channel=0 note=44 velocity=0 time=33
note_on channel=0 note=44 velocity=60 time=0
note_on channel=0 note=68 velocity=34 time=23
note_on channel=0 note=63 velocity=38 time=0
note_on channel=0 note=58 velocity=67 time=0
note_on channel=0 note=52 velocity=46 time=89
note_off channel=0 note=56 velocity=0 time=33
note_on channel=0 note=56 velocity=56 time=0
note_off channel=0 note=68 velocity=0 time=101
note_off channel=0 note=56 velocity=0 time=211
note_off channel=0 note=63 velocity=0 time=1
note_off channel=0 note=52 velocity=0 time=144
note_on channel=0 note=56 velocity=56 time=134
note_on channel=0 note=63 velocity=64 time=11
note_on channel=0 note=58 velocity=63 time=11
note_off channel=0 note=58 velocity=0 time=1
note_off channel=0 note=56 velocity=0 time=111
note_off channel=0 note=63 velocity=0 time=379
note_on channel=0 note=63 velocity=54 time=0
note_off channel=0 note=58 velocity=0 time=11
note_on channel=0 note=58 velocity=73 time=0
note_off channel=0 note=44 velocity=0 time=178
note_off channel=0 note=58 velocity=0 time=67
note_on channel=0 note=58 velocity=81 time=0
note_on channel=0 note=56 velocity=56 time=33
note_on channel=0 note=44 velocity=42 time=45
note_off channel=0 note=63 velocity=0 time=101
note_off channel=0 note=58 velocity=0 time=33
note_on channel=0 note=58 velocity=59 time=0
note_off channel=0 note=56 velocity=0 time=134
note_off channel=0 note=58 velocity=0 time=79
note_on channel=0 note=58 velocity=45 time=78
note_on channel=0 note=52 velocity=43 time=44
note_off channel=0 note=44 velocity=0 time=23
note_on channel=0 note=44 velocity=38 time=144
note_on channel=0 note=63 velocity=52 time=12
note_off channel=0 note=58 velocity=0 time=22
note_on channel=0 note=58 velocity=65 time=0
note_off channel=0 note=44 velocity=0 time=178
note_off channel=0 note=52 velocity=0 time=123
note_off channel=0 note=58 velocity=0 time=89
note_on channel=0 note=58 velocity=64 time=0
note_off channel=0 note=63 velocity=0 time=78
note_off channel=0 note=58 velocity=0 time=134
note_on channel=0 note=49 velocity=58 time=33
note_on channel=0 note=59 velocity=81 time=22
note_on channel=0 note=63 velocity=82 time=123
note_on channel=0 note=56 velocity=53 time=11
note_off channel=0 note=59 velocity=0 time=44
note_on channel=0 note=59 velocity=75 time=1
note_off channel=0 note=56 velocity=0 time=178
note_off channel=0 note=59 velocity=0 time=45
note_on channel=0 note=59 velocity=60 time=0
note_off channel=0 note=63 velocity=0 time=89
note_on channel=0 note=63 velocity=68 time=0
note_on channel=0 note=56 velocity=46 time=89
note_off channel=0 note=56 velocity=0 time=134
note_off channel=0 note=63 velocity=0 time=235
note_on channel=0 note=63 velocity=66 time=0
note_off channel=0 note=63 velocity=0 time=212
note_on channel=0 note=63 velocity=70 time=0
note_on channel=0 note=68 velocity=35 time=44
note_on channel=0 note=56 velocity=37 time=12
note_off channel=0 note=63 velocity=0 time=156
note_on channel=0 note=63 velocity=63 time=0
note_off channel=0 note=68 velocity=0 time=10
note_off channel=0 note=56 velocity=0 time=79
note_off channel=0 note=59 velocity=0 time=100
note_on channel=0 note=59 velocity=45 time=0
note_off channel=0 note=63 velocity=0 time=212
note_on channel=0 note=63 velocity=71 time=0
note_on channel=0 note=68 velocity=32 time=167
note_off channel=0 note=59 velocity=0 time=22
note_on channel=0 note=59 velocity=41 time=0
note_off channel=0 note=68 velocity=0 time=145
note_off channel=0 note=59 velocity=0 time=33
note_off channel=0 note=63 velocity=0 time=79
note_on channel=0 note=63 velocity=58 time=0
note_off channel=0 note=63 velocity=0 time=178
note_on channel=0 note=63 velocity=52 time=0
note_off channel=0 note=63 velocity=0 time=458
note_on channel=0 note=63 velocity=50 time=0
note_on channel=0 note=51 velocity=50 time=156
note_off channel=0 note=49 velocity=0 time=33
note_off channel=0 note=63 velocity=0 time=23
note_on channel=0 note=63 velocity=45 time=0
note_on channel=0 note=68 velocity=38 time=89
note_off channel=0 note=63 velocity=0 time=112
note_on channel=0 note=63 velocity=52 time=0
note_off channel=0 note=68 velocity=0 time=100
note_off channel=0 note=51 velocity=0 time=11
note_on channel=0 note=63 velocity=54 time=22
note_off channel=0 note=63 velocity=0 time=1
note_off channel=0 note=63 velocity=0 time=177
note_on channel=0 note=63 velocity=48 time=79
note_on channel=0 note=51 velocity=46 time=0
note_off channel=0 note=51 velocity=0 time=201
note_on channel=0 note=63 velocity=50 time=10
note_off channel=0 note=63 velocity=0 time=1
note_on channel=0 note=56 velocity=52 time=133
note_on channel=0 note=51 velocity=49 time=56
note_off channel=0 note=63 velocity=0 time=156
note_off channel=0 note=56 velocity=0 time=22
note_off channel=0 note=51 velocity=0 time=89
note_on channel=0 note=63 velocity=51 time=56
note_on channel=0 note=56 velocity=43 time=100
note_on channel=0 note=51 velocity=48 time=113
note_off channel=0 note=63 velocity=0 time=67
note_off channel=0 note=56 velocity=0 time=11
note_on channel=0 note=63 velocity=54 time=0
note_off channel=0 note=51 velocity=0 time=78
note_off channel=0 note=63 velocity=0 time=123
note_on channel=0 note=63 velocity=50 time=0
note_on channel=0 note=51 velocity=58 time=189
note_off channel=0 note=63 velocity=0 time=67
note_on channel=0 note=63 velocity=47 time=223
note_on channel=0 note=56 velocity=43 time=145
note_off channel=0 note=63 velocity=0 time=11
note_off channel=0 note=51 velocity=0 time=67
note_on channel=0 note=51 velocity=48 time=11
note_off channel=0 note=56 velocity=0 time=112
note_on channel=0 note=63 velocity=49 time=44
note_off channel=0 note=51 velocity=0 time=123
note_off channel=0 note=63 velocity=0 time=592
note_on channel=0 note=56 velocity=39 time=735
note_off channel=0 note=56 velocity=0 time=301
note_on channel=0 note=56 velocity=54 time=134
note_on channel=0 note=44 velocity=58 time=0
note_on channel=0 note=51 velocity=56 time=67
note_off channel=0 note=56 velocity=0 time=134
note_off channel=0 note=44 velocity=0 time=11
note_off channel=0 note=51 velocity=0 time=11
note_on channel=0 note=54 velocity=58 time=0
note_on channel=0 note=59 velocity=56 time=89
note_on channel=0 note=63 velocity=60 time=0
note_off channel=0 note=54 velocity=0 time=123
note_off channel=0 note=63 velocity=0 time=11
note_on channel=0 note=63 velocity=78 time=11
note_on channel=0 note=51 velocity=51 time=11
note_on channel=0 note=44 velocity=63 time=11
note_off channel=0 note=51 velocity=0 time=223
note_off channel=0 note=63 velocity=0 time=224
note_on channel=0 note=63 velocity=82 time=0
note_off channel=0 note=59 velocity=0 time=45
note_on channel=0 note=59 velocity=46 time=0
note_off channel=0 note=63 velocity=0 time=122
note_on channel=0 note=63 velocity=54 time=0
note_on channel=0 note=51 velocity=48 time=56
note_off channel=0 note=59 velocity=0 time=67
note_on channel=0 note=68 velocity=48 time=0
note_off channel=0 note=51 velocity=0 time=100
note_off channel=0 note=68 velocity=0 time=34
note_on channel=0 note=51 velocity=52 time=145
note_off channel=0 note=63 velocity=0 time=33
note_on channel=0 note=63 velocity=71 time=0
note_off channel=0 note=63 velocity=0 time=156
note_on channel=0 note=63 velocity=72 time=0
note_off channel=0 note=51 velocity=0 time=223
note_on channel=0 note=51 velocity=43 time=134
note_off channel=0 note=63 velocity=0 time=44
note_on channel=0 note=63 velocity=72 time=0
note_off channel=0 note=63 velocity=0 time=156
note_on channel=0 note=63 velocity=70 time=0
note_off channel=0 note=51 velocity=0 time=90
note_off channel=0 note=63 velocity=0 time=155
note_on channel=0 note=63 velocity=71 time=1
note_on channel=0 note=51 velocity=46 time=0
note_on channel=0 note=63 velocity=61 time=179
note_off channel=0 note=63 velocity=0 time=1
note_off channel=0 note=51 velocity=0 time=78
note_off channel=0 note=63 velocity=0 time=55
note_on channel=0 note=63 velocity=74 time=0
note_off channel=0 note=44 velocity=0 time=100
note_off channel=0 note=63 velocity=0 time=123
note_on channel=0 note=63 velocity=79 time=0
note_off channel=0 note=63 velocity=0 time=245
note_on channel=0 note=63 velocity=78 time=0
note_off channel=0 note=63 velocity=0 time=290
note_on channel=0 note=63 velocity=87 time=0
note_on channel=0 note=63 velocity=84 time=345
note_off channel=0 note=63 velocity=0 time=1
note_on channel=0 note=54 velocity=56 time=66
note_on channel=0 note=58 velocity=71 time=156
note_off channel=0 note=63 velocity=0 time=11
note_on channel=0 note=63 velocity=91 time=0
note_off channel=0 note=54 velocity=0 time=234
note_off channel=0 note=63 velocity=0 time=11
note_on channel=0 note=63 velocity=90 time=1
note_off channel=0 note=58 velocity=0 time=55
note_off channel=0 note=63 velocity=0 time=191
note_on channel=0 note=63 velocity=97 time=0
note_off channel=0 note=63 velocity=0 time=245
note_on channel=0 note=63 velocity=84 time=0
note_off channel=0 note=63 velocity=0 time=256
note_on channel=0 note=63 velocity=85 time=1
note_off channel=0 note=63 velocity=0 time=234
note_on channel=0 note=63 velocity=87 time=0
note_off channel=0 note=63 velocity=0 time=267
note_on channel=0 note=63 velocity=82 time=0
note_on channel=0 note=58 velocity=41 time=89
note_off channel=0 note=63 velocity=0 time=156
note_on channel=0 note=63 velocity=81 time=0
note_off channel=0 note=63 velocity=0 time=167
note_on channel=0 note=63 velocity=80 time=1
note_off channel=0 note=58 velocity=0 time=77
note_on channel=0 note=58 velocity=55 time=12
note_off channel=0 note=63 velocity=0 time=156
note_off channel=0 note=58 velocity=0 time=0
note_on channel=0 note=63 velocity=89 time=0
note_on channel=0 note=58 velocity=53 time=122
note_on channel=0 note=63 velocity=66 time=68
note_off channel=0 note=63 velocity=0 time=1
note_off channel=0 note=63 velocity=0 time=244
note_on channel=0 note=63 velocity=71 time=1
note_off channel=0 note=63 velocity=0 time=156
note_on channel=0 note=63 velocity=73 time=0
note_off channel=0 note=58 velocity=0 time=200
note_off channel=0 note=63 velocity=0 time=45
note_on channel=0 note=63 velocity=63 time=0
note_on channel=0 note=49 velocity=67 time=780
note_off channel=0 note=63 velocity=0 time=11
note_on channel=0 note=63 velocity=65 time=0
note_on channel=0 note=68 velocity=48 time=279
note_off channel=0 note=63 velocity=0 time=33
note_on channel=0 note=63 velocity=56 time=0
note_off channel=0 note=63 velocity=0 time=124
note_on channel=0 note=66 velocity=62 time=0
note_on channel=0 note=63 velocity=49 time=0
note_off channel=0 note=68 velocity=0 time=89
note_off channel=0 note=66 velocity=0 time=56
note_off channel=0 note=63 velocity=0 time=22
note_on channel=0 note=63 velocity=52 time=0
note_on channel=0 note=71 velocity=84 time=90
note_off channel=0 note=49 velocity=0 time=22
note_on channel=0 note=49 velocity=69 time=0
note_off channel=0 note=63 velocity=0 time=133
note_on channel=0 note=63 velocity=56 time=1
note_off channel=0 note=71 velocity=0 time=89
note_on channel=0 note=71 velocity=75 time=0
note_off channel=0 note=63 velocity=0 time=245
note_off channel=0 note=71 velocity=0 time=0
note_on channel=0 note=71 velocity=63 time=0
note_on channel=0 note=63 velocity=45 time=0
note_on channel=0 note=68 velocity=45 time=245
note_off channel=0 note=63 velocity=0 time=11
note_on channel=0 note=63 velocity=62 time=0
note_off channel=0 note=68 velocity=0 time=145
note_on channel=0 note=68 velocity=39 time=100
note_on channel=0 note=49 velocity=64 time=0
note_off channel=0 note=49 velocity=0 time=1
note_on channel=0 note=56 velocity=45 time=66
note_off channel=0 note=63 velocity=0 time=100
note_on channel=0 note=63 velocity=66 time=1
note_off channel=0 note=68 velocity=0 time=10
note_off channel=0 note=71 velocity=0 time=112
note_off channel=0 note=56 velocity=0 time=89
note_off channel=0 note=63 velocity=0 time=56
note_on channel=0 note=63 velocity=48 time=0
note_on channel=0 note=56 velocity=45 time=112
note_off channel=0 note=63 velocity=0 time=101
note_on channel=0 note=63 velocity=46 time=0
note_off channel=0 note=56 velocity=0 time=313
note_off channel=0 note=63 velocity=0 time=289
note_off channel=0 note=49 velocity=0 time=211
note_on channel=0 note=56 velocity=53 time=201
note_on channel=0 note=51 velocity=44 time=201
note_off channel=0 note=56 velocity=0 time=22
note_off channel=0 note=51 velocity=0 time=268
note_on channel=0 note=61 velocity=63 time=100
note_on channel=0 note=49 velocity=74 time=0
note_on channel=0 note=64 velocity=52 time=89
note_on channel=0 note=70 velocity=75 time=67
note_on channel=0 note=58 velocity=42 time=67
note_off channel=0 note=58 velocity=0 time=124
note_off channel=0 note=61 velocity=0 time=156
note_off channel=0 note=70 velocity=0 time=189
note_on channel=0 note=70 velocity=69 time=0
note_off channel=0 note=64 velocity=0 time=45
note_on channel=0 note=64 velocity=49 time=0
note_off channel=0 note=70 velocity=0 time=178
note_on channel=0 note=70 velocity=55 time=0
note_off channel=0 note=64 velocity=0 time=134
note_off channel=0 note=70 velocity=0 time=178
note_on channel=0 note=70 velocity=51 time=0
note_on channel=0 note=58 velocity=41 time=67
note_off channel=0 note=70 velocity=0 time=189
note_off channel=0 note=58 velocity=0 time=67
note_on channel=0 note=70 velocity=40 time=67
note_on channel=0 note=51 velocity=55 time=201
note_off channel=0 note=70 velocity=0 time=44
note_on channel=0 note=70 velocity=37 time=1
note_off channel=0 note=49 velocity=0 time=66
note_off channel=0 note=51 velocity=0 time=56
note_off channel=0 note=70 velocity=0 time=45
note_on channel=0 note=70 velocity=42 time=0
note_off channel=0 note=70 velocity=0 time=167
note_on channel=0 note=70 velocity=40 time=659
note_off channel=0 note=70 velocity=0 time=502
note_on channel=0 note=44 velocity=56 time=256
note_on channel=0 note=54 velocity=46 time=55
note_on channel=0 note=59 velocity=67 time=67
note_on channel=0 note=63 velocity=54 time=67
note_on channel=0 note=51 velocity=46 time=45
note_on channel=0 note=70 velocity=77 time=22
note_off channel=0 note=51 velocity=0 time=156
note_off channel=0 note=54 velocity=0 time=22
note_off channel=0 note=70 velocity=0 time=34
note_on channel=0 note=70 velocity=58 time=0
note_off channel=0 note=59 velocity=0 time=56
note_on channel=0 note=51 velocity=45 time=101
note_off channel=0 note=70 velocity=0 time=11
note_on channel=0 note=70 velocity=56 time=0
note_on channel=0 note=56 velocity=48 time=89
note_off channel=0 note=63 velocity=0 time=45
note_off channel=0 note=51 velocity=0 time=0
note_off channel=0 note=70 velocity=0 time=11
note_on channel=0 note=51 velocity=51 time=156
note_on channel=0 note=63 velocity=48 time=179
note_off channel=0 note=51 velocity=0 time=10
note_off channel=0 note=44 velocity=0 time=146
note_off channel=0 note=63 velocity=0 time=0
note_on channel=0 note=59 velocity=64 time=0
note_on channel=0 note=44 velocity=52 time=0
note_on channel=0 note=63 velocity=66 time=11
note_off channel=0 note=56 velocity=0 time=33
note_on channel=0 note=51 velocity=48 time=11
note_off channel=0 note=51 velocity=0 time=201
note_off channel=0 note=59 velocity=0 time=168
note_on channel=0 note=56 velocity=53 time=66
note_off channel=0 note=63 velocity=0 time=11
note_off channel=0 note=44 velocity=0 time=34
note_off channel=0 note=56 velocity=0 time=89
note_on channel=0 note=56 velocity=42 time=55
note_on channel=0 note=51 velocity=47 time=0
note_on channel=0 note=63 velocity=72 time=12
note_on channel=0 note=59 velocity=50 time=0
note_on channel=0 note=44 velocity=39 time=100
note_on channel=0 note=70 velocity=48 time=11
note_off channel=0 note=56 velocity=0 time=33
note_off channel=0 note=51 velocity=0 time=56
note_off channel=0 note=70 velocity=0 time=56
note_off channel=0 note=63 velocity=0 time=11
note_on channel=0 note=63 velocity=64 time=0
note_off channel=0 note=44 velocity=0 time=89
note_off channel=0 note=59 velocity=0 time=12
note_on channel=0 note=56 velocity=43 time=79
note_off channel=0 note=63 velocity=0 time=222
note_on channel=0 note=63 velocity=67 time=1
note_on channel=0 note=44 velocity=47 time=22
note_on channel=0 note=59 velocity=66 time=11
note_on channel=0 note=70 velocity=41 time=67
note_on channel=0 note=51 velocity=48 time=22
note_off channel=0 note=56 velocity=0 time=201
note_on channel=0 note=56 velocity=48 time=0
note_off channel=0 note=70 velocity=0 time=22
note_off channel=0 note=51 velocity=0 time=33
note_on channel=0 note=70 velocity=44 time=112
note_off channel=0 note=44 velocity=0 time=78
note_on channel=0 note=63 velocity=51 time=11
note_off channel=0 note=63 velocity=0 time=1
note_off channel=0 note=59 velocity=0 time=10
note_on channel=0 note=51 velocity=47 time=23
note_off channel=0 note=56 velocity=0 time=100
note_on channel=0 note=56 velocity=60 time=0
note_off channel=0 note=63 velocity=0 time=22
note_on channel=0 note=63 velocity=61 time=0
note_on channel=0 note=59 velocity=36 time=34
note_off channel=0 note=51 velocity=0 time=56
note_off channel=0 note=70 velocity=0 time=55
note_off channel=0 note=56 velocity=0 time=78
note_off channel=0 note=63 velocity=0 time=0
note_off channel=0 note=59 velocity=0 time=0
note_on channel=0 note=63 velocity=69 time=0
note_on channel=0 note=56 velocity=61 time=0
note_on channel=0 note=59 velocity=48 time=11
note_on channel=0 note=44 velocity=54 time=11
note_off channel=0 note=59 velocity=0 time=156
note_off channel=0 note=44 velocity=0 time=11
note_off channel=0 note=56 velocity=0 time=12
note_on channel=0 note=56 velocity=84 time=0
note_off channel=0 note=63 velocity=0 time=156
note_on channel=0 note=47 velocity=55 time=11
note_off channel=0 note=56 velocity=0 time=78
note_on channel=0 note=56 velocity=71 time=0
note_on channel=0 note=54 velocity=45 time=156
note_off channel=0 note=56 velocity=0 time=124
note_off channel=0 note=47 velocity=0 time=156
note_off channel=0 note=54 velocity=0 time=89
note_on channel=0 note=54 velocity=47 time=11
note_on channel=0 note=47 velocity=48 time=45
note_on channel=0 note=63 velocity=44 time=256
note_off channel=0 note=54 velocity=0 time=167
note_on channel=0 note=58 velocity=60 time=23
note_on channel=0 note=56 velocity=53 time=11
note_off channel=0 note=47 velocity=0 time=145
note_off channel=0 note=56 velocity=0 time=44
note_off channel=0 note=63 velocity=0 time=56
note_on channel=0 note=47 velocity=42 time=67
note_off channel=0 note=47 velocity=0 time=189
note_off channel=0 note=58 velocity=0 time=45
note_on channel=0 note=58 velocity=53 time=134
note_on channel=0 note=63 velocity=57 time=0
note_on channel=0 note=56 velocity=54 time=22
note_on channel=0 note=46 velocity=63 time=0
note_off channel=0 note=46 velocity=0 time=167
note_off channel=0 note=56 velocity=0 time=34
note_on channel=0 note=66 velocity=47 time=268
note_off channel=0 note=66 velocity=0 time=156
note_off channel=0 note=63 velocity=0 time=45
note_off channel=0 note=58 velocity=0 time=11
note_on channel=0 note=63 velocity=56 time=0
note_on channel=0 note=58 velocity=46 time=0
note_on channel=0 note=66 velocity=49 time=156
note_off channel=0 note=58 velocity=0 time=33
note_off channel=0 note=63 velocity=0 time=335
note_off channel=0 note=66 velocity=0 time=167
note_on channel=0 note=66 velocity=76 time=0
note_off channel=0 note=66 velocity=0 time=145
note_on channel=0 note=66 velocity=76 time=0
note_off channel=0 note=66 velocity=0 time=602
note_on channel=0 note=54 velocity=48 time=100
note_on channel=0 note=63 velocity=48 time=11
note_on channel=0 note=61 velocity=64 time=22
note_on channel=0 note=51 velocity=36 time=45
note_off channel=0 note=54 velocity=0 time=57
note_off channel=0 note=51 velocity=0 time=100
note_on channel=0 note=51 velocity=60 time=11
note_off channel=0 note=63 velocity=0 time=89
note_off channel=0 note=61 velocity=0 time=0
note_on channel=0 note=63 velocity=74 time=1
note_off channel=0 note=63 velocity=0 time=189
note_on channel=0 note=63 velocity=74 time=0
note_off channel=0 note=51 velocity=0 time=334
note_on channel=0 note=51 velocity=44 time=134
note_on channel=0 note=54 velocity=48 time=0
note_off channel=0 note=63 velocity=0 time=11
note_on channel=0 note=63 velocity=89 time=0
note_off channel=0 note=63 velocity=0 time=223
note_on channel=0 note=63 velocity=75 time=0
note_off channel=0 note=63 velocity=0 time=189
note_on channel=0 note=63 velocity=90 time=1
note_off channel=0 note=51 velocity=0 time=78
note_off channel=0 note=54 velocity=0 time=66
note_on channel=0 note=61 velocity=40 time=101
note_off channel=0 note=63 velocity=0 time=11
note_on channel=0 note=63 velocity=95 time=0
note_on channel=0 note=54 velocity=52 time=0
note_on channel=0 note=51 velocity=58 time=100
note_off channel=0 note=61 velocity=0 time=246
note_off channel=0 note=51 velocity=0 time=10
note_off channel=0 note=63 velocity=0 time=91
note_on channel=0 note=63 velocity=90 time=0
note_on channel=0 note=61 velocity=57 time=245
note_off channel=0 note=54 velocity=0 time=11
note_off channel=0 note=63 velocity=0 time=0
note_on channel=0 note=63 velocity=100 time=1
note_on channel=0 note=54 velocity=48 time=0
note_on channel=0 note=68 velocity=42 time=100
note_off channel=0 note=68 velocity=0 time=245
note_off channel=0 note=61 velocity=0 time=22
note_off channel=0 note=63 velocity=0 time=23
note_on channel=0 note=63 velocity=92 time=0
note_off channel=0 note=54 velocity=0 time=123
note_off channel=0 note=63 velocity=0 time=55
note_on channel=0 note=63 velocity=93 time=0
note_off channel=0 note=63 velocity=0 time=167
note_on channel=0 note=63 velocity=66 time=0
note_on channel=0 note=54 velocity=51 time=691
note_on channel=0 note=51 velocity=67 time=0
note_off channel=0 note=63 velocity=0 time=145
note_on channel=0 note=63 velocity=86 time=0
note_off channel=0 note=63 velocity=0 time=124
note_on channel=0 note=63 velocity=82 time=0
note_on channel=0 note=44 velocity=46 time=134
note_off channel=0 note=63 velocity=0 time=55
note_on channel=0 note=63 velocity=54 time=0
note_off channel=0 note=44 velocity=0 time=302
note_off channel=0 note=63 velocity=0 time=10
note_off channel=0 note=51 velocity=0 time=101
note_on channel=0 note=61 velocity=60 time=44
note_on channel=0 note=63 velocity=61 time=11
note_on channel=0 note=44 velocity=47 time=67
note_off channel=0 note=63 velocity=0 time=189
note_on channel=0 note=63 velocity=53 time=1
note_off channel=0 note=44 velocity=0 time=89
note_off channel=0 note=54 velocity=0 time=33
note_off channel=0 note=63 velocity=0 time=34
note_off channel=0 note=61 velocity=0 time=55
note_on channel=0 note=61 velocity=55 time=190
note_on channel=0 note=54 velocity=50 time=0
note_on channel=0 note=63 velocity=73 time=11
note_off channel=0 note=63 velocity=0 time=145
note_on channel=0 note=63 velocity=66 time=0
note_off channel=0 note=63 velocity=0 time=178
note_on channel=0 note=63 velocity=57 time=0
note_off channel=0 note=54 velocity=0 time=135
note_off channel=0 note=61 velocity=0 time=34
note_on channel=0 note=61 velocity=50 time=145
note_off channel=0 note=63 velocity=0 time=22
note_on channel=0 note=63 velocity=72 time=0
note_on channel=0 note=54 velocity=55 time=0
note_on channel=0 note=51 velocity=48 time=0
note_on channel=0 note=44 velocity=45 time=11
note_off channel=0 note=44 velocity=0 time=134
note_off channel=0 note=51 velocity=0 time=111
note_off channel=0 note=61 velocity=0 time=101
note_off channel=0 note=54 velocity=0 time=334
note_off channel=0 note=63 velocity=0 time=100
note_on channel=0 note=49 velocity=55 time=658
note_on channel=0 note=68 velocity=37 time=11
note_on channel=0 note=56 velocity=67 time=0
note_on channel=0 note=59 velocity=44 time=67
note_off channel=0 note=49 velocity=0 time=78
note_off channel=0 note=68 velocity=0 time=0
note_on channel=0 note=49 velocity=64 time=0
note_off channel=0 note=56 velocity=0 time=11
note_on channel=0 note=63 velocity=71 time=11
note_off channel=0 note=59 velocity=0 time=202
note_off channel=0 note=63 velocity=0 time=245
note_on channel=0 note=63 velocity=49 time=0
note_on channel=0 note=56 velocity=33 time=67
note_off channel=0 note=49 velocity=0 time=56
note_on channel=0 note=49 velocity=57 time=0
note_off channel=0 note=63 velocity=0 time=111
note_on channel=0 note=63 velocity=47 time=0
note_off channel=0 note=56 velocity=0 time=22
note_off channel=0 note=49 velocity=0 time=34
note_on channel=0 note=49 velocity=71 time=0
note_off channel=0 note=63 velocity=0 time=133
note_off channel=0 note=49 velocity=0 time=68
note_on channel=0 note=49 velocity=63 time=0
note_on channel=0 note=63 velocity=47 time=156
note_off channel=0 note=49 velocity=0 time=78
note_on channel=0 note=49 velocity=67 time=0
note_off channel=0 note=63 velocity=0 time=189
note_on channel=0 note=63 velocity=49 time=134
note_on channel=0 note=49 velocity=73 time=111
note_off channel=0 note=49 velocity=0 time=1
note_off channel=0 note=49 velocity=0 time=311
note_on channel=0 note=49 velocity=89 time=1
note_on channel=0 note=56 velocity=45 time=90
note_off channel=0 note=49 velocity=0 time=134
note_on channel=0 note=49 velocity=64 time=0
note_on channel=0 note=61 velocity=37 time=122
note_off channel=0 note=56 velocity=0 time=23
note_off channel=0 note=63 velocity=0 time=78
note_on channel=0 note=63 velocity=59 time=11
note_off channel=0 note=49 velocity=0 time=178
note_on channel=0 note=49 velocity=64 time=0
note_off channel=0 note=61 velocity=0 time=100
note_off channel=0 note=63 velocity=0 time=101
note_on channel=0 note=63 velocity=63 time=0
note_off channel=0 note=63 velocity=0 time=379
note_on channel=0 note=63 velocity=64 time=0
note_off channel=0 note=63 velocity=0 time=178
note_on channel=0 note=63 velocity=60 time=123
note_off channel=0 note=63 velocity=0 time=156
note_on channel=0 note=63 velocity=65 time=11
note_on channel=0 note=68 velocity=48 time=145
note_off channel=0 note=68 velocity=0 time=202
note_off channel=0 note=49 velocity=0 time=278
note_on channel=0 note=49 velocity=61 time=0
note_off channel=0 note=63 velocity=0 time=190
note_on channel=0 note=68 velocity=32 time=0
note_on channel=0 note=63 velocity=58 time=0
note_on channel=0 note=56 velocity=50 time=0
note_off channel=0 note=68 velocity=0 time=145
note_on channel=0 note=68 velocity=55 time=0
note_on channel=0 note=58 velocity=61 time=55
note_off channel=0 note=63 velocity=0 time=1
note_off channel=0 note=56 velocity=0 time=100
note_off channel=0 note=68 velocity=0 time=33
note_on channel=0 note=68 velocity=46 time=45
note_off channel=0 note=49 velocity=0 time=33
note_on channel=0 note=49 velocity=58 time=0
note_on channel=0 note=64 velocity=46 time=11
note_off channel=0 note=58 velocity=0 time=22
note_on channel=0 note=58 velocity=58 time=0
note_off channel=0 note=49 velocity=0 time=201
note_on channel=0 note=49 velocity=48 time=0
note_off channel=0 note=64 velocity=0 time=56
note_off channel=0 note=68 velocity=0 time=11
note_off channel=0 note=58 velocity=0 time=200
note_on channel=0 note=68 velocity=44 time=12
note_off channel=0 note=68 velocity=0 time=245
note_off channel=0 note=49 velocity=0 time=447
note_on channel=0 note=49 velocity=44 time=189
note_off channel=0 note=49 velocity=0 time=290
note_on channel=0 note=49 velocity=44 time=368
note_on channel=0 note=68 velocity=44 time=11
note_off channel=0 note=68 velocity=0 time=167
note_off channel=0 note=49 velocity=0 time=11
note_on channel=0 note=49 velocity=42 time=212
note_on channel=0 note=68 velocity=54 time=89
note_off channel=0 note=49 velocity=0 time=123
note_off channel=0 note=68 velocity=0 time=257
note_on channel=0 note=68 velocity=59 time=1
note_on channel=0 note=68 velocity=58 time=278
note_off channel=0 note=68 velocity=0 time=1
note_on channel=0 note=56 velocity=48 time=66
note_on channel=0 note=63 velocity=47 time=34
note_on channel=0 note=44 velocity=77 time=22
note_on channel=0 note=51 velocity=51 time=78
note_off channel=0 note=68 velocity=0 time=55
note_off channel=0 note=56 velocity=0 time=0
note_on channel=0 note=68 velocity=54 time=1
note_on channel=0 note=56 velocity=58 time=0
note_off channel=0 note=44 velocity=0 time=11
note_on channel=0 note=44 velocity=54 time=0
note_on channel=0 note=59 velocity=67 time=33
note_off channel=0 note=56 velocity=0 time=90
note_off channel=0 note=63 velocity=0 time=33
note_on channel=0 note=63 velocity=45 time=0
note_off channel=0 note=59 velocity=0 time=55
note_off channel=0 note=51 velocity=0 time=1
note_on channel=0 note=59 velocity=60 time=0
note_off channel=0 note=68 velocity=0 time=33
note_on channel=0 note=68 velocity=61 time=0
note_on channel=0 note=51 velocity=43 time=123
note_off channel=0 note=51 velocity=0 time=167
note_off channel=0 note=59 velocity=0 time=78
note_off channel=0 note=68 velocity=0 time=0
note_on channel=0 note=68 velocity=56 time=0
note_on channel=0 note=59 velocity=50 time=0
note_on channel=0 note=68 velocity=49 time=423
note_on channel=0 note=51 velocity=54 time=0
note_off channel=0 note=68 velocity=0 time=1
note_on channel=0 note=56 velocity=60 time=10
note_off channel=0 note=44 velocity=0 time=45
note_on channel=0 note=44 velocity=51 time=0
note_off channel=0 note=68 velocity=0 time=100
note_off channel=0 note=59 velocity=0 time=202
note_on channel=0 note=59 velocity=51 time=0
note_on channel=0 note=68 velocity=53 time=22
note_off channel=0 note=56 velocity=0 time=45
note_on channel=0 note=56 velocity=47 time=0
note_off channel=0 note=63 velocity=0 time=11
note_on channel=0 note=63 velocity=53 time=0
note_off channel=0 note=68 velocity=0 time=145
note_off channel=0 note=51 velocity=0 time=44
note_off channel=0 note=44 velocity=0 time=1
note_on channel=0 note=51 velocity=48 time=0
note_on channel=0 note=68 velocity=54 time=67
note_on channel=0 note=44 velocity=50 time=55
note_off channel=0 note=59 velocity=0 time=78
note_off channel=0 note=56 velocity=0 time=0
note_off channel=0 note=68 velocity=0 time=56
note_off channel=0 note=63 velocity=0 time=78
note_on channel=0 note=63 velocity=74 time=0
note_on channel=0 note=68 velocity=60 time=123
note_off channel=0 note=63 velocity=0 time=156
note_off channel=0 note=68 velocity=0 time=33
note_on channel=0 note=56 velocity=42 time=123
note_on channel=0 note=68 velocity=43 time=11
note_on channel=0 note=59 velocity=57 time=11
note_on channel=0 note=63 velocity=63 time=11
note_off channel=0 note=68 velocity=0 time=167
note_off channel=0 note=56 velocity=0 time=1
note_off channel=0 note=51 velocity=0 time=22
note_off channel=0 note=59 velocity=0 time=289
note_on channel=0 note=51 velocity=49 time=45
note_off channel=0 note=51 velocity=0 time=235
note_off channel=0 note=44 velocity=0 time=457
note_on channel=0 note=56 velocity=57 time=156
note_on channel=0 note=58 velocity=49 time=34
note_off channel=0 note=63 velocity=0 time=89
note_on channel=0 note=63 velocity=91 time=0
note_off channel=0 note=63 velocity=0 time=401
note_on channel=0 note=63 velocity=88 time=0
note_off channel=0 note=58 velocity=0 time=234
note_on channel=0 note=58 velocity=42 time=156
note_on channel=0 note=40 velocity=53 time=179
note_off channel=0 note=58 velocity=0 time=100
note_off channel=0 note=40 velocity=0 time=56
note_off channel=0 note=63 velocity=0 time=56
note_on channel=0 note=63 velocity=81 time=1
note_on channel=0 note=58 velocity=43 time=44
note_off channel=0 note=56 velocity=0 time=56
note_off channel=0 note=58 velocity=0 time=200
note_off channel=0 note=63 velocity=0 time=881
note_on channel=0 note=63 velocity=83 time=0
note_on channel=0 note=56 velocity=45 time=11
note_off channel=0 note=56 velocity=0 time=379
note_off channel=0 note=63 velocity=0 time=11
note_on channel=0 note=63 velocity=87 time=0
note_off channel=0 note=63 velocity=0 time=380
note_on channel=0 note=63 velocity=89 time=0
note_off channel=0 note=63 velocity=0 time=390
note_on channel=0 note=63 velocity=78 time=1
note_off channel=0 note=63 velocity=0 time=401
note_on channel=0 note=63 velocity=69 time=0
note_off channel=0 note=63 velocity=0 time=156
note_on channel=0 note=49 velocity=74 time=33
note_on channel=0 note=68 velocity=51 time=78
note_on channel=0 note=56 velocity=72 time=0
note_on channel=0 note=58 velocity=56 time=45
note_on channel=0 note=63 velocity=64 time=22
note_on channel=0 note=46 velocity=50 time=11
note_on channel=0 note=61 velocity=51 time=145
note_off channel=0 note=46 velocity=0 time=33
note_off channel=0 note=56 velocity=0 time=134
note_on channel=0 note=56 velocity=47 time=0
note_off channel=0 note=61 velocity=0 time=112
note_on channel=0 note=61 velocity=81 time=0
note_off channel=0 note=68 velocity=0 time=122
note_off channel=0 note=58 velocity=0 time=45
note_off channel=0 note=56 velocity=0 time=112
note_on channel=0 note=56 velocity=49 time=1
note_on channel=0 note=58 velocity=49 time=22
note_off channel=0 note=61 velocity=0 time=156
note_off channel=0 note=58 velocity=0 time=0
note_on channel=0 note=61 velocity=90 time=0
note_off channel=0 note=56 velocity=0 time=212
note_on channel=0 note=56 velocity=50 time=0
note_off channel=0 note=61 velocity=0 time=44
note_on channel=0 note=61 velocity=76 time=0
note_on channel=0 note=58 velocity=55 time=56
note_off channel=0 note=63 velocity=0 time=22
note_on channel=0 note=63 velocity=57 time=0
note_off channel=0 note=58 velocity=0 time=145
note_off channel=0 note=61 velocity=0 time=33
note_on channel=0 note=61 velocity=79 time=1
note_off channel=0 note=56 velocity=0 time=89
note_on channel=0 note=56 velocity=49 time=0
note_on channel=0 note=61 velocity=66 time=44
note_off channel=0 note=61 velocity=0 time=1
note_off channel=0 note=56 velocity=0 time=156
note_off channel=0 note=61 velocity=0 time=88
note_on channel=0 note=61 velocity=42 time=1
note_on channel=0 note=56 velocity=42 time=501
note_off channel=0 note=61 velocity=0 time=34
note_on channel=0 note=61 velocity=46 time=0
note_off channel=0 note=63 velocity=0 time=44
note_on channel=0 note=63 velocity=59 time=0
note_off channel=0 note=56 velocity=0 time=134
note_on channel=0 note=56 velocity=43 time=180
note_off channel=0 note=61 velocity=0 time=100
note_off channel=0 note=56 velocity=0 time=45
note_on channel=0 note=61 velocity=55 time=89
note_off channel=0 note=63 velocity=0 time=111
note_off channel=0 note=61 velocity=0 time=290
note_on channel=0 note=61 velocity=48 time=11
note_off channel=0 note=49 velocity=0 time=11
note_on channel=0 note=49 velocity=60 time=0
note_on channel=0 note=68 velocity=40 time=89
note_on channel=0 note=56 velocity=81 time=0
note_off channel=0 note=61 velocity=0 time=45
note_on channel=0 note=59 velocity=68 time=22
note_off channel=0 note=56 velocity=0 time=67
note_on channel=0 note=63 velocity=70 time=0
note_on channel=0 note=56 velocity=45 time=0
note_on channel=0 note=44 velocity=46 time=268
note_off channel=0 note=68 velocity=0 time=22
note_off channel=0 note=44 velocity=0 time=279
note_on channel=0 note=61 velocity=38 time=167
note_off channel=0 note=59 velocity=0 time=156
note_off channel=0 note=61 velocity=0 time=33
note_off channel=0 note=56 velocity=0 time=46
note_on channel=0 note=59 velocity=49 time=0
note_on channel=0 note=56 velocity=47 time=0
note_off channel=0 note=63 velocity=0 time=11
note_on channel=0 note=63 velocity=73 time=0
note_off channel=0 note=59 velocity=0 time=201
note_off channel=0 note=56 velocity=0 time=145
note_on channel=0 note=61 velocity=91 time=189
note_off channel=0 note=63 velocity=0 time=134
note_on channel=0 note=63 velocity=73 time=0
note_off channel=0 note=61 velocity=0 time=11
note_on channel=0 note=61 velocity=60 time=0
note_on channel=0 note=59 velocity=57 time=0
note_on channel=0 note=56 velocity=63 time=0
note_off channel=0 note=56 velocity=0 time=256
note_on channel=0 note=56 velocity=55 time=0
note_off channel=0 note=61 velocity=0 time=56
note_on channel=0 note=61 velocity=82 time=0
note_off channel=0 note=61 velocity=0 time=178
note_on channel=0 note=61 velocity=86 time=0
note_off channel=0 note=61 velocity=0 time=178
note_on channel=0 note=61 velocity=92 time=1
note_off channel=0 note=59 velocity=0 time=11
note_on channel=0 note=59 velocity=51 time=0
note_off channel=0 note=63 velocity=0 time=11
note_on channel=0 note=63 velocity=60 time=0
note_off channel=0 note=56 velocity=0 time=111
note_on channel=0 note=44 velocity=42 time=413
note_off channel=0 note=59 velocity=0 time=68
note_on channel=0 note=61 velocity=101 time=33
note_off channel=0 note=61 velocity=0 time=1
note_off channel=0 note=44 velocity=0 time=189
note_off channel=0 note=61 velocity=0 time=66
note_on channel=0 note=61 velocity=98 time=1
note_off channel=0 note=63 velocity=0 time=167
note_off channel=0 note=49 velocity=0 time=33
note_on channel=0 note=61 velocity=73 time=11
note_off channel=0 note=61 velocity=0 time=1
note_off channel=0 note=61 velocity=0 time=211
note_on channel=0 note=61 velocity=49 time=0
note_on channel=0 note=63 velocity=59 time=245
note_off channel=0 note=61 velocity=0 time=78
note_on channel=0 note=44 velocity=63 time=56
note_on channel=0 note=56 velocity=53 time=11
note_on channel=0 note=54 velocity=63 time=168
note_off channel=0 note=56 velocity=0 time=44
note_on channel=0 note=59 velocity=61 time=145
note_off channel=0 note=63 velocity=0 time=167
note_on channel=0 note=63 velocity=87 time=0
note_off channel=0 note=54 velocity=0 time=157
note_on channel=0 note=70 velocity=63 time=56
note_on channel=0 note=54 velocity=46 time=212
note_off channel=0 note=59 velocity=0 time=178
note_on channel=0 note=59 velocity=66 time=0
note_off channel=0 note=59 velocity=0 time=234
note_off channel=0 note=54 velocity=0 time=101
note_off channel=0 note=70 velocity=0 time=66
note_on channel=0 note=70 velocity=50 time=1
note_on channel=0 note=59 velocity=58 time=55
note_off channel=0 note=63 velocity=0 time=45
note_on channel=0 note=63 velocity=78 time=0
note_off channel=0 note=59 velocity=0 time=100
note_off channel=0 note=70 velocity=0 time=12
note_on channel=0 note=63 velocity=92 time=88
note_off channel=0 note=63 velocity=0 time=1
note_on channel=0 note=70 velocity=54 time=100
note_on channel=0 note=59 velocity=59 time=0
note_off channel=0 note=63 velocity=0 time=44
note_on channel=0 note=63 velocity=89 time=0
note_off channel=0 note=59 velocity=0 time=101
note_off channel=0 note=70 velocity=0 time=22
note_off channel=0 note=63 velocity=0 time=211
note_on channel=0 note=63 velocity=85 time=1
note_on channel=0 note=70 velocity=57 time=11
note_on channel=0 note=59 velocity=62 time=0
note_on channel=0 note=68 velocity=45 time=22
note_off channel=0 note=70 velocity=0 time=134
note_off channel=0 note=59 velocity=0 time=22
note_off channel=0 note=68 velocity=0 time=45
note_on channel=0 note=70 velocity=47 time=157
note_on channel=0 note=59 velocity=59 time=0
note_on channel=0 note=68 velocity=44 time=33
note_off channel=0 note=68 velocity=0 time=189
note_off channel=0 note=59 velocity=0 time=1
note_off channel=0 note=63 velocity=0 time=78
note_on channel=0 note=63 velocity=86 time=0
note_off channel=0 note=70 velocity=0 time=100
note_on channel=0 note=70 velocity=54 time=0
note_on channel=0 note=59 velocity=60 time=0
note_on channel=0 note=68 velocity=44 time=23
note_off channel=0 note=70 velocity=0 time=155
note_off channel=0 note=63 velocity=0 time=1
note_off channel=0 note=68 velocity=0 time=0
note_on channel=0 note=63 velocity=81 time=0
note_off channel=0 note=59 velocity=0 time=10
note_on channel=0 note=63 velocity=89 time=190
note_off channel=0 note=63 velocity=0 time=1
note_on channel=0 note=70 velocity=50 time=10
note_on channel=0 note=59 velocity=53 time=12
note_on channel=0 note=68 velocity=44 time=44
note_off channel=0 note=63 velocity=0 time=78
note_on channel=0 note=63 velocity=83 time=0
note_off channel=0 note=59 velocity=0 time=12
note_off channel=0 note=70 velocity=0 time=32
note_off channel=0 note=68 velocity=0 time=45
note_off channel=0 note=63 velocity=0 time=67
note_on channel=0 note=63 velocity=79 time=0
note_on channel=0 note=70 velocity=47 time=100
note_on channel=0 note=59 velocity=44 time=0
note_on channel=0 note=68 velocity=44 time=34
note_off channel=0 note=59 velocity=0 time=111
note_off channel=0 note=70 velocity=0 time=33
note_off channel=0 note=68 velocity=0 time=34
note_off channel=0 note=44 velocity=0 time=45
note_off channel=0 note=63 velocity=0 time=44
note_on channel=0 note=63 velocity=79 time=0
note_on channel=0 note=70 velocity=44 time=90
note_on channel=0 note=68 velocity=43 time=55
note_off channel=0 note=68 velocity=0 time=156
note_off channel=0 note=63 velocity=0 time=68
note_on channel=0 note=63 velocity=75 time=0
note_off channel=0 note=70 velocity=0 time=112
note_on channel=0 note=70 velocity=53 time=0
note_on channel=0 note=59 velocity=47 time=22
note_on channel=0 note=68 velocity=44 time=11
note_off channel=0 note=63 velocity=0 time=89
note_on channel=0 note=63 velocity=64 time=0
note_off channel=0 note=59 velocity=0 time=34
note_off channel=0 note=70 velocity=0 time=33
note_off channel=0 note=68 velocity=0 time=0
note_off channel=0 note=63 velocity=0 time=111
note_on channel=0 note=63 velocity=78 time=1
note_on channel=0 note=70 velocity=53 time=89
note_on channel=0 note=59 velocity=53 time=11
note_on channel=0 note=68 velocity=48 time=22
note_off channel=0 note=63 velocity=0 time=12
note_on channel=0 note=63 velocity=78 time=0
note_off channel=0 note=59 velocity=0 time=133
note_off channel=0 note=68 velocity=0 time=44
note_off channel=0 note=70 velocity=0 time=12
note_on channel=0 note=70 velocity=52 time=167
note_off channel=0 note=63 velocity=0 time=23
note_on channel=0 note=68 velocity=45 time=0
note_on channel=0 note=63 velocity=76 time=0
note_on channel=0 note=59 velocity=47 time=0
note_off channel=0 note=70 velocity=0 time=122
note_off channel=0 note=59 velocity=0 time=12
note_off channel=0 note=68 velocity=0 time=44
note_on channel=0 note=70 velocity=50 time=178
note_on channel=0 note=68 velocity=49 time=34
note_off channel=0 note=63 velocity=0 time=11
note_on channel=0 note=63 velocity=83 time=0
note_on channel=0 note=59 velocity=44 time=11
note_off channel=0 note=59 velocity=0 time=145
note_off channel=0 note=70 velocity=0 time=44
note_off channel=0 note=68 velocity=0 time=34
note_on channel=0 note=70 velocity=51 time=122
note_off channel=0 note=63 velocity=0 time=34
note_on channel=0 note=68 velocity=55 time=0
note_on channel=0 note=63 velocity=75 time=0
note_on channel=0 note=59 velocity=49 time=0
note_off channel=0 note=59 velocity=0 time=134
note_off channel=0 note=68 velocity=0 time=79
note_off channel=0 note=70 velocity=0 time=155
note_on channel=0 note=70 velocity=56 time=1
note_off channel=0 note=63 velocity=0 time=11
note_on channel=0 note=68 velocity=55 time=0
note_on channel=0 note=63 velocity=77 time=0
note_off channel=0 note=70 velocity=0 time=201
note_off channel=0 note=68 velocity=0 time=22
note_on channel=0 note=70 velocity=56 time=145
note_on channel=0 note=68 velocity=56 time=22
note_off channel=0 note=63 velocity=0 time=11
note_on channel=0 note=63 velocity=73 time=0
note_off channel=0 note=70 velocity=0 time=201
note_off channel=0 note=68 velocity=0 time=22
note_on channel=0 note=70 velocity=50 time=156
note_off channel=0 note=63 velocity=0 time=11
note_on channel=0 note=68 velocity=51 time=0
note_on channel=0 note=63 velocity=79 time=0
note_off channel=0 note=70 velocity=0 time=390
note_off channel=0 note=68 velocity=0 time=0
note_on channel=0 note=70 velocity=49 time=0
note_on channel=0 note=68 velocity=50 time=0
note_off channel=0 note=63 velocity=0 time=11
note_on channel=0 note=63 velocity=79 time=1
note_off channel=0 note=68 velocity=0 time=378
note_on channel=0 note=68 velocity=49 time=1
note_off channel=0 note=63 velocity=0 time=22
note_on channel=0 note=63 velocity=75 time=0
note_off channel=0 note=68 velocity=0 time=380
note_off channel=0 note=63 velocity=0 time=0
note_on channel=0 note=68 velocity=65 time=0
note_on channel=0 note=63 velocity=71 time=0
note_off channel=0 note=70 velocity=0 time=222
note_on channel=0 note=70 velocity=51 time=124
note_off channel=0 note=70 velocity=0 time=256
note_on channel=0 note=70 velocity=52 time=134
note_off channel=0 note=63 velocity=0 time=66
note_on channel=0 note=63 velocity=66 time=1
note_off channel=0 note=70 velocity=0 time=156
note_off channel=0 note=63 velocity=0 time=1105
note_on channel=0 note=70 velocity=54 time=33
note_on channel=0 note=63 velocity=73 time=0
note_off channel=0 note=70 velocity=0 time=134
note_off channel=0 note=68 velocity=0 time=501
note_off channel=0 note=63 velocity=0 time=312
note_on channel=0 note=63 velocity=71 time=625
note_on channel=0 note=35 velocity=61 time=34
note_off channel=0 note=63 velocity=0 time=200
note_off channel=0 note=35 velocity=0 time=67
note_on channel=0 note=23 velocity=58 time=859
note_off channel=0 note=23 velocity=0 time=201
note_on channel=0 note=65 velocity=0 time=434
note_off channel=0 note=65 velocity=0 time=1